<?xml version="1.0" encoding="UTF-8"?>
<svg xmlns="http://www.w3.org/2000/svg" viewBox="0 0 156.75 50.04">
  <g>
    <path fill="#ffffff" d="M33,41.2h-16.88c-.54,0-1.02.34-1.19.85l-2.42,7.14c-.17.51-.65.85-1.19.85H1.26c-.87,0-1.48-.86-1.18-1.68L17.27.83c.18-.5.65-.83,1.18-.83h12.35c.53,0,1,.33,1.18.83l17.2,47.53c.3.82-.31,1.68-1.18,1.68h-10.21c-.54,0-1.02-.34-1.19-.85l-2.42-7.14c-.17-.51-.65-.85-1.19-.85ZM30.2,30.13l-4.45-13.13c-.39-1.14-2-1.14-2.38,0l-4.39,13.13c-.27.81.33,1.65,1.19,1.65h8.84c.86,0,1.46-.84,1.19-1.66Z"/>
    <path fill="#ffffff" d="M156.75,25.02c0,4.89-1.08,9.24-3.24,13.04-2.16,3.81-5.23,6.75-9.2,8.84-3.97,2.09-8.56,3.14-13.79,3.14h-17.5c-.69,0-1.25-.56-1.25-1.25v-11.63c0-.09.01-.19.03-.28l4.64-20.23c.13-.57.64-.97,1.22-.97h5.04c.69,0,1.25.56,1.25,1.25v21.31c0,.69.56,1.25,1.25,1.25h4.53c4.6,0,8.19-1.26,10.76-3.78,2.57-2.52,3.85-6.08,3.85-10.69s-1.28-8.2-3.85-10.76c-2.57-2.57-6.16-3.85-10.76-3.85h-5.78s-12.54.01-12.54.01v.05s-.54,2.03-.54,2.03l-.83,3.17-8.86,34-.1.37h-13.76c-.58,0-1.08-.4-1.22-.96l-6.55-27.03c-.31-1.27-2.12-1.28-2.44-.01l-6.79,27.05c-.14.56-.64.95-1.22.95h-12.81c-.57,0-1.07-.39-1.22-.95L43.03,1.56C42.83.77,43.43,0,44.25,0h10.41c.6,0,1.11.42,1.23,1.01l5.9,29.84c.26,1.32,2.13,1.36,2.45.05L71.56.96C71.7.39,72.21,0,72.78,0h11.42c.58,0,1.09.4,1.22.97l7,29.83c.31,1.31,2.19,1.28,2.45-.04l5.94-29.75C100.93.42,101.45,0,102.05,0h28.47c5.27,0,9.88,1.05,13.83,3.14,3.94,2.09,7,5.02,9.16,8.8,2.16,3.78,3.24,8.14,3.24,13.08Z"/>
  </g>
</svg>
