<?xml version="1.0" encoding="UTF-8"?>
<svg id="Camada_2" data-name="Camada 2" xmlns="http://www.w3.org/2000/svg" viewBox="0 0 439.28 262.79">
  <defs>
    <style>
      .cls-1 {
        fill: #1d485e;
      }
    </style>
  </defs>
  <g id="Camada_1-2" data-name="Camada 1">
    <g>
      <path class="cls-1" d="M231.88,195.49c-.43-1.02-1.17-1.77-2.23-2.26-1.06-.48-2.14-.53-3.24-.15-1.1.39-1.89,1.12-2.37,2.19l-23.98,54.06-29.53-64.71c-.48-1.07-1.22-1.8-2.23-2.19-1-.39-2.04-.34-3.09.14-1.06.49-1.78,1.24-2.16,2.27-.38,1.02-.38,2.06,0,3.13l32.79,71.19c.87,2.04,2.21,3.06,4.03,3.06,2.11,0,3.64-1.02,4.6-3.06l27.33-60.53c.48-1.06.51-2.11.07-3.13"/>
      <path class="cls-1" d="M67.1,199.05c-3.17-5.42-7.5-9.54-13.01-12.37-5.05-2.59-10.71-3.93-16.93-4.15,0-.03,0-.05,0-.07-.26,0-.52-.02-.78-.02-.16,0-.3.02-.47.03-.16,0-.3-.03-.46-.03-.26,0-.52.01-.78.02,0,.02,0,.04,0,.07-6.21.22-11.88,1.56-16.93,4.15-5.51,2.83-9.85,6.95-13.01,12.37-3.17,5.42-4.75,12.11-4.75,20.06v38.69c0,1.25.41,2.28,1.22,3.09.82.82,1.85,1.23,3.1,1.23s2.28-.41,3.09-1.23c.82-.81,1.22-1.84,1.22-3.09v-38.69c0-6.33,1.23-11.55,3.67-15.67,2.45-4.12,5.75-7.21,9.92-9.27,4.04-2,8.62-3.01,13.7-3.07,5.09.06,9.66,1.07,13.71,3.07,4.17,2.06,7.48,5.15,9.92,9.27,2.45,4.12,3.67,9.35,3.67,15.67v38.69c0,1.25.41,2.28,1.22,3.09.82.82,1.85,1.23,3.1,1.23s2.28-.41,3.09-1.23c.82-.81,1.22-1.84,1.22-3.09v-38.69c0-7.95-1.58-14.64-4.75-20.06"/>
      <path class="cls-1" d="M86.49,245.5c3.16,5.42,7.5,9.54,13.01,12.37,5.05,2.59,10.71,3.94,16.93,4.16,0,.02,0,.05,0,.07.26,0,.52.02.78.02.16,0,.3-.02.47-.03.16,0,.3.03.46.03.26,0,.52-.02.78-.02,0-.02,0-.05,0-.07,6.21-.22,11.88-1.57,16.93-4.16,5.51-2.82,9.85-6.95,13.01-12.37,3.17-5.42,4.75-12.1,4.75-20.06v-38.68c0-1.25-.41-2.28-1.23-3.09-.81-.82-1.84-1.23-3.09-1.23s-2.28.41-3.09,1.23c-.82.81-1.22,1.84-1.22,3.09v38.68c0,6.33-1.23,11.55-3.67,15.68-2.45,4.12-5.75,7.21-9.92,9.27-4.04,2-8.62,3.01-13.7,3.07-5.09-.06-9.66-1.07-13.71-3.07-4.17-2.06-7.48-5.15-9.92-9.27-2.45-4.12-3.67-9.35-3.67-15.68v-38.68c0-1.25-.41-2.28-1.22-3.09-.82-.82-1.85-1.23-3.1-1.23s-2.28.41-3.09,1.23c-.82.81-1.22,1.84-1.22,3.09v38.68c0,7.96,1.58,14.65,4.75,20.06"/>
      <path class="cls-1" d="M331.09,262.22c-1.27,0-2.33-.42-3.17-1.26-.84-.84-1.26-1.89-1.26-3.17s.43-2.32,1.3-3.13c.87-.81,1.91-1.21,3.13-1.21s2.24.42,3.08,1.26c.84.84,1.26,1.87,1.26,3.09s-.42,2.25-1.26,3.12c-.84.87-1.87,1.3-3.08,1.3"/>
      <path class="cls-1" d="M232.55,190.79c-1.27,0-2.33-.42-3.17-1.26-.84-.84-1.26-1.89-1.26-3.17s.43-2.32,1.3-3.13c.87-.81,1.91-1.21,3.13-1.21s2.24.42,3.08,1.26c.84.84,1.26,1.87,1.26,3.09s-.42,2.25-1.26,3.12c-.84.87-1.87,1.3-3.08,1.3"/>
      <path class="cls-1" d="M160.08,262.22c-1.28,0-2.33-.42-3.17-1.26-.84-.84-1.26-1.89-1.26-3.17s.43-2.32,1.3-3.13c.87-.81,1.91-1.21,3.13-1.21s2.24.42,3.08,1.26c.84.84,1.26,1.87,1.26,3.09s-.42,2.25-1.26,3.12c-.84.87-1.87,1.3-3.08,1.3"/>
      <path class="cls-1" d="M435.47,198.65c-2.54-5.08-6.02-9.06-10.43-11.94-4.41-2.87-9.55-4.31-15.39-4.31s-10.93,1.36-15.53,4.1c-4.57,2.71-8.19,6.49-10.87,11.33-.02-.03-.04-.06-.06-.1-.06.1-.13.19-.19.28-.04-.06-.09-.12-.13-.19-.02.03-.04.06-.06.1-2.68-4.84-6.3-8.62-10.87-11.33-4.61-2.73-9.78-4.1-15.53-4.1s-10.98,1.44-15.39,4.31c-4.41,2.87-7.89,6.86-10.43,11.94-2.53,5.08-3.81,10.93-3.81,17.55v28.19c0,1.24.39,2.28,1.16,3.09.76.82,1.82,1.22,3.16,1.22,1.25,0,2.28-.41,3.09-1.22s1.22-1.85,1.22-3.09v-28.19c0-7.38,1.94-13.42,5.82-18.12,3.88-4.69,8.94-7.04,15.18-7.04,6.61,0,12.01,2.18,16.18,6.54,2.59,2.71,4.34,6,5.25,9.88-.03.04-.04.09-.06.13.24.89.39,1.85.56,2.8.18,1.53.27,3.12.22,4.81h.03c0,.34-.03.67-.03,1.01v41.56c0,1.24.39,2.28,1.16,3.09.76.82,1.82,1.22,3.16,1.22.42,0,.81-.06,1.18-.16.94-.14,1.7-.52,2.3-1.15.76-.82,1.15-1.85,1.15-3.09v-41.57c0-.34-.02-.67-.02-1h.02c-.04-1.57.04-3.05.19-4.48.17-1,.33-2,.59-2.95-.04-.06-.06-.13-.09-.2.9-3.93,2.66-7.25,5.27-9.99,4.17-4.36,9.56-6.54,16.18-6.54,6.23,0,11.29,2.35,15.18,7.04,3.88,4.7,5.82,10.74,5.82,18.12v41.57c0,1.24.41,2.28,1.23,3.09.81.82,1.84,1.22,3.09,1.22,1.34,0,2.4-.41,3.16-1.22.77-.82,1.15-1.85,1.15-3.09v-41.57c0-6.61-1.27-12.46-3.81-17.54"/>
      <path class="cls-1" d="M253.26,206.12c2.45-4.79,5.8-8.56,10.07-11.29,4.27-2.73,9.14-4.1,14.6-4.1,5.75,0,10.76,1.36,15.03,4.1,4.27,2.74,7.56,6.5,9.85,11.29,1.7,3.54,2.7,7.47,3.05,11.79h-55.98c.48-4.34,1.6-8.28,3.39-11.79M309.57,201.31c-3.07-5.8-7.33-10.35-12.8-13.66-5.47-3.31-11.75-4.96-18.84-4.96s-13.57,1.72-19.12,5.18c-5.57,3.45-9.93,8.17-13.09,14.16-3.17,5.99-4.75,12.92-4.75,20.78s1.68,14.67,5.04,20.71c3.35,6.04,7.98,10.77,13.88,14.17,5.9,3.4,12.63,5.1,20.21,5.1,4.5,0,9.22-.91,14.17-2.73,4.93-1.82,8.94-4.12,12.01-6.9.96-.87,1.41-1.82,1.37-2.87-.05-1.06-.6-2.01-1.65-2.88-.77-.67-1.7-.98-2.81-.94-1.1.05-2.04.46-2.81,1.23-2.21,2.11-5.2,3.81-8.99,5.1-3.79,1.29-7.55,1.94-11.29,1.94-5.95,0-11.22-1.36-15.82-4.1-4.61-2.73-8.2-6.49-10.79-11.29-2.22-4.11-3.43-8.78-3.74-13.95h60.26c1.24,0,2.25-.36,3.02-1.08.77-.72,1.15-1.7,1.15-2.95,0-7.57-1.53-14.26-4.6-20.06"/>
      <path class="cls-1" d="M341.08,80.85c-4.32-6.69-14.67-17.93-35.52-17.93-1.52,0-3.07.06-4.66.18-.48-14.57-5.09-27.96-13.42-38.91-8.39-11.04-20.19-18.98-33.23-22.36-4.68-1.21-9.41-1.83-14.05-1.83-20.41,0-38.56,11.88-49.17,31.98-8.5-7-19-10.44-29.73-9.51-15.68,1.38-29.37,11.83-36.19,27.46-16.79-1.41-31.18,5.59-40.06,19.29-8.91,13.76-10.26,31.81-3.43,45.99,7.7,15.98,23.97,24.78,45.81,24.78h60.73v34.79h.04c-.02.12-.04.23-.04.35v4.41c0,1.66,1.35,3.02,3.02,3.02h1.74c1.59,0,2.87-1.29,2.87-2.88v-44.6c0-1.59-1.29-2.88-2.87-2.88h-65.49c-18.77,0-32.6-7.26-38.95-20.43-5.66-11.74-4.5-26.76,2.94-38.26,6.67-10.3,17.16-15.97,29.53-15.97,1.98,0,4.02.15,6.06.44l.73.11c1.35.19,2.64-.59,3.11-1.86l.27-.73c5.31-14.38,17.12-24.06,30.83-25.26,10.13-.88,20.06,3.06,27.54,10.83l.94.97c.66.69,1.63,1.01,2.58.84.94-.17,1.75-.79,2.13-1.67l.56-1.27c8.91-20.12,25.56-32.14,44.55-32.14h0c4,0,8.08.53,12.12,1.58,20.92,5.44,41.68,25.46,40.91,57.95l-.03,1.18c-.02.84.33,1.65.96,2.22.63.56,1.47.82,2.32.7l1.08-.15c2.68-.37,5.32-.56,7.82-.56,13.07,0,23.18,4.98,29.26,14.41,6.24,9.68,7.11,23.06,2.17,33.29-4.3,8.89-12.07,13.78-21.89,13.78h-82.93v-22.71h6.82c1.01,0,1.95-.53,2.47-1.4.52-.87.54-1.94.07-2.84l-19.71-36.87c-.5-.94-1.47-1.52-2.54-1.52s-2.04.58-2.54,1.52l-19.7,36.87c-.48.89-.45,1.97.07,2.84.52.87,1.46,1.4,2.47,1.4h6.82v65.29s0,.03,0,.03c-.01.11-.03.21-.03.33v4.41c0,.24.03.47.09.69.11.56.38,1.08.79,1.48.54.54,1.27.84,2.04.84h1.71c1.66,0,3.02-1.35,3.02-3.02v-4.41c0-.12-.02-.24-.04-.35h.07v-70.2c0-.76-.3-1.5-.84-2.04-.54-.54-1.28-.84-2.04-.84h-3.52l11.65-21.8,11.65,21.8h-3.52c-1.59,0-2.88,1.29-2.88,2.88v32.53c0,1.59,1.29,2.88,2.88,2.88h87.69c12.7,0,23.17-6.61,28.73-18.13,6.1-12.62,5.04-29.11-2.64-41.02"/>
    </g>
  </g>
</svg>