<?xml version="1.0" encoding="UTF-8"?>
<svg id="Camada_2" data-name="Camada 2" xmlns="http://www.w3.org/2000/svg" viewBox="0 0 418.25 337.98">
  <defs>
    <style>
      .cls-1 {
        fill: #fff;
      }
    </style>
  </defs>
  <g id="_Ñëîé_4" data-name="Ñëîé 4">
    <g>
      <path class="cls-1" d="M220.78,186.13c-.41-.98-1.12-1.69-2.12-2.16-1.01-.46-2.03-.51-3.08-.14-1.05.37-1.8,1.07-2.26,2.08l-22.83,51.47-28.11-61.61c-.46-1.02-1.17-1.71-2.12-2.08-.96-.37-1.94-.32-2.94.14-1.01.47-1.69,1.18-2.05,2.16-.36.97-.36,1.97,0,2.99l31.22,67.78c.82,1.94,2.1,2.91,3.84,2.91,2.01,0,3.47-.97,4.38-2.91l26.02-57.63c.45-1.02.48-2.01.07-2.98"/>
      <path class="cls-1" d="M63.89,189.52c-3.01-5.16-7.14-9.08-12.39-11.78-4.81-2.47-10.2-3.75-16.12-3.96,0-.02,0-.04,0-.06-.25,0-.49-.02-.75-.02-.15,0-.29.02-.44.02-.15,0-.29-.02-.44-.02-.25,0-.5.01-.75.02,0,.02,0,.04,0,.06-5.92.21-11.31,1.49-16.12,3.96-5.25,2.69-9.38,6.62-12.39,11.78-3.01,5.16-4.52,11.53-4.52,19.1v36.83c0,1.19.39,2.17,1.16,2.94.77.78,1.76,1.16,2.94,1.16s2.17-.39,2.94-1.16c.78-.78,1.16-1.76,1.16-2.94v-36.83c0-6.02,1.16-11,3.49-14.93,2.33-3.92,5.48-6.87,9.45-8.83,3.85-1.9,8.21-2.86,13.05-2.92,4.84.06,9.2,1.02,13.05,2.92,3.97,1.96,7.12,4.91,9.45,8.83,2.33,3.93,3.49,8.9,3.49,14.93v36.83c0,1.19.39,2.17,1.16,2.94.77.78,1.76,1.16,2.94,1.16s2.17-.39,2.94-1.16c.78-.78,1.16-1.76,1.16-2.94v-36.83c0-7.58-1.5-13.94-4.52-19.1"/>
      <path class="cls-1" d="M82.35,233.75c3.01,5.16,7.14,9.08,12.39,11.78,4.81,2.47,10.2,3.75,16.12,3.96,0,.02,0,.04,0,.06.25,0,.49.02.75.02.15,0,.29-.02.44-.02.15,0,.29.02.44.02.25,0,.5-.01.75-.02,0-.02,0-.04,0-.06,5.92-.21,11.31-1.49,16.11-3.96,5.25-2.69,9.38-6.62,12.39-11.78,3.01-5.16,4.52-11.53,4.52-19.1v-36.84c0-1.19-.39-2.17-1.17-2.94-.77-.78-1.76-1.16-2.94-1.16s-2.17.39-2.94,1.16c-.78.77-1.16,1.76-1.16,2.94v36.84c0,6.02-1.16,11-3.49,14.93-2.33,3.92-5.48,6.87-9.45,8.83-3.85,1.91-8.21,2.87-13.05,2.92-4.84-.06-9.2-1.02-13.05-2.92-3.97-1.96-7.12-4.91-9.45-8.83-2.33-3.93-3.49-8.9-3.49-14.93v-36.84c0-1.19-.39-2.17-1.16-2.94-.77-.78-1.76-1.16-2.94-1.16s-2.17.39-2.94,1.16c-.78.77-1.16,1.76-1.16,2.94v36.84c0,7.58,1.5,13.94,4.52,19.1"/>
      <path class="cls-1" d="M315.24,249.66c-1.21,0-2.22-.4-3.02-1.2-.8-.8-1.2-1.8-1.2-3.02s.41-2.21,1.24-2.98c.83-.77,1.82-1.16,2.98-1.16s2.14.4,2.94,1.2c.8.8,1.2,1.78,1.2,2.94s-.4,2.15-1.2,2.98c-.8.83-1.78,1.24-2.94,1.24"/>
      <path class="cls-1" d="M221.41,181.65c-1.21,0-2.22-.4-3.02-1.2-.8-.8-1.2-1.8-1.2-3.02s.41-2.21,1.24-2.98c.83-.77,1.82-1.16,2.98-1.16s2.14.4,2.94,1.2c.8.8,1.2,1.78,1.2,2.94s-.4,2.15-1.2,2.98c-.8.83-1.78,1.24-2.94,1.24"/>
      <path class="cls-1" d="M152.42,249.66c-1.21,0-2.22-.4-3.02-1.2-.8-.8-1.2-1.8-1.2-3.02s.41-2.21,1.24-2.98c.83-.77,1.82-1.16,2.98-1.16s2.14.4,2.94,1.2c.8.8,1.2,1.78,1.2,2.94s-.4,2.15-1.2,2.98c-.8.83-1.78,1.24-2.94,1.24"/>
      <path class="cls-1" d="M414.62,189.13c-2.42-4.84-5.73-8.63-9.93-11.37-4.2-2.74-9.09-4.11-14.65-4.11s-10.4,1.3-14.79,3.9c-4.35,2.58-7.8,6.18-10.35,10.79-.02-.03-.04-.06-.06-.09-.06.09-.12.18-.18.27-.04-.06-.09-.12-.12-.18-.02.03-.04.06-.06.09-2.55-4.61-6-8.2-10.35-10.79-4.38-2.6-9.31-3.9-14.79-3.9s-10.46,1.37-14.65,4.11c-4.2,2.74-7.51,6.53-9.93,11.36-2.42,4.84-3.63,10.41-3.63,16.71v26.84c0,1.19.37,2.17,1.1,2.94.73.78,1.73,1.16,3.01,1.16,1.19,0,2.17-.39,2.94-1.16.78-.78,1.16-1.76,1.16-2.94v-26.84c0-7.03,1.85-12.78,5.55-17.25,3.7-4.47,8.51-6.71,14.45-6.71,6.3,0,11.43,2.08,15.4,6.23,2.47,2.58,4.13,5.71,4.99,9.4-.02.04-.03.09-.05.13.23.85.37,1.76.53,2.66.18,1.46.26,2.98.21,4.58h.02c0,.32-.02.63-.02.96v39.58c0,1.18.37,2.17,1.1,2.94.73.78,1.73,1.16,3.01,1.16.4,0,.77-.06,1.13-.15.89-.13,1.62-.5,2.19-1.1.73-.78,1.1-1.76,1.1-2.94v-39.57c0-.32-.02-.64-.02-.96h.02c-.04-1.49.04-2.91.18-4.27.16-.95.32-1.91.56-2.81-.03-.06-.05-.13-.08-.19.86-3.74,2.53-6.91,5.02-9.51,3.97-4.15,9.11-6.23,15.4-6.23,5.94,0,10.75,2.24,14.45,6.71,3.7,4.47,5.55,10.22,5.55,17.25v39.57c0,1.19.39,2.17,1.16,2.94.77.78,1.75,1.16,2.94,1.16,1.28,0,2.28-.39,3.01-1.16.73-.78,1.1-1.76,1.1-2.94v-39.57c0-6.3-1.21-11.87-3.63-16.71"/>
      <path class="cls-1" d="M241.14,196.26c2.33-4.56,5.52-8.15,9.58-10.75,4.06-2.6,8.7-3.9,13.9-3.9,5.48,0,10.25,1.3,14.31,3.9,4.06,2.6,7.19,6.19,9.38,10.75,1.62,3.37,2.58,7.12,2.9,11.23h-53.3c.46-4.13,1.52-7.88,3.23-11.23M294.75,191.67c-2.93-5.52-6.98-9.86-12.19-13.01-5.2-3.15-11.18-4.72-17.94-4.72s-12.92,1.64-18.21,4.93c-5.3,3.28-9.45,7.78-12.46,13.49-3.01,5.71-4.52,12.3-4.52,19.79s1.6,13.97,4.79,19.72c3.19,5.75,7.6,10.25,13.21,13.49,5.61,3.24,12.03,4.86,19.24,4.86,4.29,0,8.78-.87,13.49-2.6,4.7-1.73,8.51-3.92,11.43-6.57.91-.82,1.34-1.73,1.3-2.74-.05-1-.57-1.92-1.57-2.74-.73-.64-1.62-.93-2.67-.89-1.05.05-1.94.43-2.67,1.17-2.1,2.01-4.95,3.63-8.56,4.86-3.61,1.23-7.19,1.85-10.75,1.85-5.66,0-10.68-1.3-15.06-3.9-4.38-2.6-7.81-6.18-10.27-10.75-2.11-3.91-3.26-8.36-3.57-13.28h57.38c1.19,0,2.14-.34,2.87-1.03.73-.68,1.09-1.62,1.09-2.81,0-7.21-1.46-13.58-4.38-19.1"/>
      <path class="cls-1" d="M324.75,76.98c-4.11-6.37-13.97-17.07-33.82-17.07-1.44,0-2.93.06-4.44.17-.46-13.87-4.85-26.62-12.78-37.04-7.99-10.51-19.23-18.07-31.63-21.29-4.45-1.16-8.96-1.75-13.38-1.75-19.44,0-36.71,11.31-46.82,30.45-8.1-6.67-18.09-9.95-28.31-9.05-14.93,1.31-27.97,11.26-34.46,26.14-15.98-1.35-29.69,5.32-38.14,18.37-8.49,13.1-9.77,30.29-3.26,43.79,7.33,15.22,22.82,23.6,43.62,23.6h57.82v33.12h.03c-.01.11-.03.22-.03.34v4.21c0,1.58,1.29,2.87,2.87,2.87h1.66c1.51,0,2.74-1.23,2.74-2.74v-42.47c0-1.51-1.23-2.74-2.74-2.74h-62.35c-17.87,0-31.04-6.91-37.09-19.45-5.39-11.18-4.29-25.48,2.81-36.43,6.35-9.81,16.33-15.21,28.11-15.21h0c1.89,0,3.83.14,5.77.42l.69.1c1.28.18,2.51-.56,2.96-1.77l.26-.7c5.06-13.69,16.31-22.91,29.36-24.05,9.64-.84,19.11,2.91,26.22,10.31l.89.93c.63.66,1.55.96,2.45.8.9-.16,1.66-.76,2.03-1.59l.53-1.21c8.48-19.16,24.34-30.6,42.42-30.6h0c3.81,0,7.69.51,11.54,1.51,19.92,5.18,39.69,24.24,38.96,55.17l-.03,1.12c-.02.81.32,1.58.92,2.11s1.4.78,2.2.67l1.03-.14c2.55-.35,5.06-.53,7.45-.53,12.44,0,22.07,4.74,27.86,13.72,5.94,9.22,6.77,21.95,2.07,31.7-4.09,8.47-11.49,13.13-20.84,13.13h-78.96v-21.62h6.5c.96,0,1.86-.51,2.35-1.33.49-.83.52-1.85.07-2.7l-18.76-35.11c-.48-.89-1.4-1.45-2.42-1.45s-1.94.56-2.42,1.45l-18.76,35.11c-.45.85-.43,1.88.07,2.7.5.83,1.39,1.33,2.35,1.33h6.49v62.16s0,.02,0,.02c-.01.1-.03.2-.03.31v4.21c0,.23.03.44.08.66.1.53.36,1.03.75,1.41.51.51,1.21.8,1.94.8h1.63c1.58,0,2.87-1.29,2.87-2.87v-4.21c0-.12-.02-.23-.04-.34h.06v-66.83c0-.73-.28-1.43-.8-1.94-.52-.51-1.21-.8-1.94-.8h-3.35l11.09-20.75,11.09,20.75h-3.35c-1.51,0-2.74,1.23-2.74,2.74v30.97c0,1.51,1.23,2.74,2.74,2.74h83.49c12.09,0,22.06-6.29,27.36-17.26,5.81-12.02,4.8-27.72-2.51-39.05"/>
    </g>
    <g>
      <path class="cls-1" d="M133.53,320.55h-30.66c.23,3.78,1.53,6.73,3.89,8.85,2.36,2.12,5.21,3.19,8.58,3.19,2.75,0,5.05-.64,6.89-1.92,1.84-1.28,3.14-3,3.88-5.15h6.86c-1.03,3.69-3.08,6.69-6.16,9s-6.91,3.46-11.48,3.46c-3.64,0-6.9-.82-9.77-2.45-2.87-1.63-5.12-3.96-6.75-6.96-1.63-3.01-2.45-6.5-2.45-10.46s.79-7.44,2.38-10.43c1.59-2.99,3.82-5.29,6.69-6.9,2.87-1.61,6.17-2.42,9.91-2.42s6.86.79,9.66,2.38c2.8,1.59,4.96,3.77,6.48,6.54,1.52,2.78,2.27,5.92,2.27,9.42,0,1.21-.07,2.5-.21,3.85ZM125.55,309.1c-1.07-1.75-2.53-3.08-4.38-3.99-1.84-.91-3.88-1.36-6.12-1.36-3.22,0-5.96,1.03-8.23,3.08s-3.56,4.9-3.88,8.54h24.22c0-2.43-.54-4.51-1.61-6.26Z"/>
      <path class="cls-1" d="M172.17,302.52c2.89,2.82,4.34,6.9,4.34,12.21v22.61h-6.3v-21.7c0-3.83-.96-6.75-2.87-8.79-1.91-2.03-4.53-3.04-7.84-3.04s-6.03,1.05-8.01,3.15c-1.98,2.1-2.98,5.16-2.98,9.17v21.21h-6.37v-38.36h6.37v5.46c1.26-1.96,2.98-3.48,5.15-4.55,2.17-1.07,4.56-1.61,7.17-1.61,4.67,0,8.45,1.41,11.34,4.23Z"/>
      <path class="cls-1" d="M192.61,336.47c-2.33-1-4.18-2.4-5.53-4.2-1.35-1.8-2.1-3.86-2.24-6.19h6.58c.19,1.91,1.08,3.48,2.7,4.69,1.61,1.21,3.72,1.82,6.33,1.82,2.43,0,4.34-.54,5.74-1.61,1.4-1.07,2.1-2.43,2.1-4.06s-.75-2.93-2.24-3.75c-1.49-.82-3.8-1.62-6.93-2.42-2.85-.75-5.17-1.5-6.96-2.28-1.8-.77-3.34-1.91-4.62-3.43-1.28-1.52-1.93-3.51-1.93-5.99,0-1.96.58-3.76,1.75-5.39,1.17-1.63,2.82-2.93,4.97-3.88,2.15-.96,4.6-1.44,7.35-1.44,4.25,0,7.68,1.07,10.29,3.22,2.61,2.15,4.01,5.09,4.2,8.82h-6.37c-.14-2.01-.95-3.62-2.42-4.83-1.47-1.21-3.44-1.82-5.92-1.82-2.29,0-4.11.49-5.46,1.47-1.35.98-2.03,2.26-2.03,3.85,0,1.26.41,2.3,1.23,3.12.82.82,1.84,1.47,3.08,1.96,1.24.49,2.95,1.04,5.14,1.65,2.75.75,4.99,1.48,6.72,2.2,1.73.72,3.21,1.81,4.45,3.26,1.24,1.45,1.88,3.34,1.92,5.67,0,2.1-.58,3.99-1.75,5.67-1.17,1.68-2.81,3-4.93,3.96-2.12.96-4.56,1.43-7.32,1.43-2.94,0-5.58-.5-7.91-1.5Z"/>
      <path class="cls-1" d="M223.69,291.5c-.84-.84-1.26-1.87-1.26-3.08s.42-2.24,1.26-3.08c.84-.84,1.87-1.26,3.08-1.26s2.16.42,2.98,1.26c.82.84,1.22,1.87,1.22,3.08s-.41,2.24-1.22,3.08c-.82.84-1.81,1.26-2.98,1.26s-2.24-.42-3.08-1.26ZM229.85,298.99v38.36h-6.37v-38.36h6.37Z"/>
      <path class="cls-1" d="M270.72,302.52c2.89,2.82,4.34,6.9,4.34,12.21v22.61h-6.3v-21.7c0-3.83-.96-6.75-2.87-8.79-1.91-2.03-4.53-3.04-7.84-3.04s-6.03,1.05-8.01,3.15c-1.98,2.1-2.98,5.16-2.98,9.17v21.21h-6.37v-38.36h6.37v5.46c1.26-1.96,2.98-3.48,5.15-4.55,2.17-1.07,4.56-1.61,7.17-1.61,4.67,0,8.45,1.41,11.34,4.23Z"/>
      <path class="cls-1" d="M292.46,335.53c-2.92-1.63-5.2-3.96-6.86-6.96-1.66-3.01-2.49-6.5-2.49-10.46s.85-7.38,2.56-10.39c1.7-3.01,4.02-5.32,6.96-6.93,2.94-1.61,6.23-2.42,9.87-2.42s6.93.81,9.87,2.42c2.94,1.61,5.26,3.91,6.97,6.9,1.7,2.99,2.55,6.46,2.55,10.43s-.88,7.46-2.62,10.46-4.12,5.33-7.11,6.96c-2.99,1.63-6.3,2.45-9.94,2.45s-6.85-.82-9.76-2.45ZM308.66,330.77c2.01-1.07,3.63-2.68,4.87-4.83,1.24-2.15,1.86-4.76,1.86-7.84s-.61-5.69-1.82-7.84c-1.21-2.15-2.8-3.75-4.76-4.79s-4.08-1.58-6.37-1.58-4.47.53-6.41,1.58-3.49,2.65-4.66,4.79c-1.17,2.15-1.75,4.76-1.75,7.84s.57,5.76,1.72,7.91c1.14,2.15,2.67,3.75,4.58,4.79,1.91,1.05,4.01,1.58,6.3,1.58s4.43-.54,6.44-1.61Z"/>
    </g>
  </g>
</svg>