<?xml version="1.0" encoding="UTF-8"?>
<svg id="Camada_2" data-name="Camada 2" xmlns="http://www.w3.org/2000/svg" xmlns:xlink="http://www.w3.org/1999/xlink" viewBox="0 0 345.97 345.98">
  <defs>
    <style>
      .cls-1 {
        fill: url(#_횁책챌청챙첼챠챠청챕_찾챨횪채챔책챠챵_3-7);
      }

      .cls-2 {
        fill: url(#_횁책챌청챙첼챠챠청챕_찾챨횪채챔책챠챵_3-3);
      }

      .cls-3 {
        fill: url(#_횁책챌청챙첼챠챠청챕_찾챨횪채챔책챠챵_3);
      }

      .cls-4 {
        fill: #29485d;
      }

      .cls-5 {
        fill: url(#_횁책챌청챙첼챠챠청챕_찾챨횪채챔책챠챵_3-6);
      }

      .cls-6 {
        fill: url(#_횁책챌청챙첼챠챠청챕_찾챨횪채챔책챠챵_3-5);
      }

      .cls-7 {
        fill: url(#_횁책챌청챙첼챠챠청챕_찾챨횪채챔책챠챵_3-2);
      }

      .cls-8 {
        fill: url(#_횁책챌청챙첼챠챠청챕_찾챨횪채챔책챠챵_3-4);
      }
    </style>
    <linearGradient id="_횁책챌청챙첼챠챠청챕_찾챨횪채챔책챠챵_3" data-name="횁책챌청챙첼챠챠청챕 찾챨횪채챔책챠챵 3" x1="369.21" y1="60.16" x2="-19.11" y2="283.44" gradientUnits="userSpaceOnUse">
      <stop offset="0" stop-color="#c1995c"/>
      <stop offset=".6" stop-color="#fde29a"/>
      <stop offset=".69" stop-color="#fadf96"/>
      <stop offset=".77" stop-color="#f3d68b"/>
      <stop offset=".84" stop-color="#e8c67a"/>
      <stop offset=".91" stop-color="#d8b161"/>
      <stop offset=".98" stop-color="#c39641"/>
      <stop offset="1" stop-color="#bd8e37"/>
    </linearGradient>
    <linearGradient id="_횁책챌청챙첼챠챠청챕_찾챨횪채챔책챠챵_3-2" data-name="횁책챌청챙첼챠챠청챕 찾챨횪채챔책챠챵 3" x1="369.21" y1="60.16" x2="-19.11" y2="283.44" xlink:href="#_횁책챌청챙첼챠챠청챕_찾챨횪채챔책챠챵_3"/>
    <linearGradient id="_횁책챌청챙첼챠챠청챕_찾챨횪채챔책챠챵_3-3" data-name="횁책챌청챙첼챠챠청챕 찾챨횪채챔책챠챵 3" x1="337.76" y1="5.47" x2="-50.55" y2="228.75" xlink:href="#_횁책챌청챙첼챠챠청챕_찾챨횪채챔책챠챵_3"/>
    <linearGradient id="_횁책챌청챙첼챠챠청챕_찾챨횪채챔책챠챵_3-4" data-name="횁책챌청챙첼챠챠청챕 찾챨횪채챔책챠챵 3" x1="400.66" y1="114.85" x2="12.34" y2="338.14" xlink:href="#_횁책챌청챙첼챠챠청챕_찾챨횪채챔책챠챵_3"/>
    <linearGradient id="_횁책챌청챙첼챠챠청챕_찾챨횪채챔책챠챵_3-5" data-name="횁책챌청챙첼챠챠청챕 찾챨횪채챔책챠챵 3" x1="355.45" y1="36.23" x2="-32.87" y2="259.51" xlink:href="#_횁책챌청챙첼챠챠청챕_찾챨횪채챔책챠챵_3"/>
    <linearGradient id="_횁책챌청챙첼챠챠청챕_찾챨횪채챔책챠챵_3-6" data-name="횁책챌청챙첼챠챠청챕 찾챨횪채챔책챠챵 3" x1="370.76" y1="62.86" x2="-17.56" y2="286.14" xlink:href="#_횁책챌청챙첼챠챠청챕_찾챨횪채챔책챠챵_3"/>
    <linearGradient id="_횁책챌청챙첼챠챠청챕_찾챨횪채챔책챠챵_3-7" data-name="횁책챌청챙첼챠챠청챕 찾챨횪채챔책챠챵 3" x1="384.24" y1="86.3" x2="-4.08" y2="309.58" xlink:href="#_횁책챌청챙첼챠챠청챕_찾챨횪채챔책챠챵_3"/>
  </defs>
  <g id="_횗챘챤챕_4" data-name="횗챘챤챕 4">
    <path class="cls-3" d="M337.67,120.08C315.29,50.49,249.91,0,172.98,0S30.68,50.49,8.3,120.08C2.91,136.76,0,154.55,0,172.99s2.91,36.23,8.28,52.91c22.4,69.59,87.76,120.08,164.7,120.08s142.31-50.49,164.71-120.08c5.38-16.68,8.28-34.46,8.28-52.91s-2.91-36.23-8.3-52.91ZM334.78,225.91c-22.3,68.05-86.4,117.32-161.81,117.32S33.49,293.95,11.19,225.91c-5.46-16.66-8.43-34.44-8.43-52.91s2.96-36.25,8.43-52.91C33.49,52.05,97.59,2.78,172.98,2.78s139.5,49.27,161.81,117.3c5.46,16.66,8.43,34.44,8.43,52.91s-2.96,36.25-8.43,52.91Z"/>
    <path class="cls-7" d="M326.02,120.08C304.06,56.69,243.76,11.06,172.98,11.06S41.91,56.69,19.93,120.08c-5.75,16.59-8.87,34.4-8.87,52.91s3.12,36.32,8.87,52.91c21.98,63.39,82.28,109.02,153.05,109.02s131.08-45.63,153.05-109.02c5.77-16.59,8.89-34.4,8.89-52.91s-3.12-36.32-8.89-52.91ZM323.28,225.91c-21.85,61.93-80.98,106.43-150.3,106.43S44.55,287.84,22.69,225.91c-5.87-16.56-9.05-34.37-9.05-52.91s3.18-36.35,9.05-52.91C44.55,58.15,103.66,13.66,172.98,13.66s128.45,44.49,150.3,106.42c5.87,16.56,9.05,34.37,9.05,52.91s-3.18,36.35-9.05,52.91Z"/>
    <path class="cls-2" d="M313.94,120.08h-58.55c-17.42-27.07-47.83-45.01-82.41-45.01s-64.98,17.94-82.41,45.01h-58.55C53.43,63.05,108.46,22.45,172.98,22.45s119.56,40.6,140.96,97.63Z"/>
    <path class="cls-8" d="M313.96,225.91c-21.41,57.05-76.44,97.63-140.98,97.63s-119.56-40.59-140.96-97.63h58.55c17.43,27.07,47.83,45.01,82.41,45.01s65-17.94,82.41-45.01h58.57Z"/>
    <g>
      <path class="cls-6" d="M152.59,142.62v58.8h-14.32v-35.26l-13.15,35.26h-11.56l-13.23-35.35v35.35h-14.32v-58.8h16.92l16.5,40.71,16.33-40.71h16.84Z"/>
      <path class="cls-5" d="M177.22,154.1v11.89h19.18v11.06h-19.18v12.9h21.69v11.48h-36.02v-58.8h36.02v11.48h-21.69Z"/>
      <path class="cls-1" d="M209.55,156.4c2.51-4.55,6.02-8.1,10.51-10.64,4.49-2.54,9.59-3.81,15.29-3.81,6.98,0,12.95,1.84,17.93,5.53,4.97,3.69,8.29,8.71,9.97,15.08h-15.75c-1.17-2.46-2.83-4.33-4.98-5.61-2.15-1.28-4.59-1.93-7.33-1.93-4.41,0-7.99,1.54-10.72,4.61-2.74,3.07-4.1,7.18-4.1,12.31s1.37,9.24,4.1,12.31c2.74,3.07,6.31,4.61,10.72,4.61,2.74,0,5.18-.64,7.33-1.93,2.15-1.28,3.81-3.15,4.98-5.61h15.75c-1.68,6.37-5,11.38-9.97,15.04-4.97,3.66-10.95,5.49-17.93,5.49-5.7,0-10.79-1.27-15.29-3.81-4.5-2.54-8-6.07-10.51-10.6-2.51-4.52-3.77-9.69-3.77-15.5s1.26-10.99,3.77-15.54Z"/>
    </g>
    <g>
      <path class="cls-4" d="M118.75,282.96c-1.04.54-2.22.75-3.55.63-1.33-.12-2.72-.66-4.18-1.62l-2.69-1.78-4.22,6.4-4.35-2.86,11.76-17.84,7.04,4.64c1.42.94,2.46,1.98,3.12,3.12.66,1.14.95,2.3.87,3.49s-.49,2.34-1.22,3.46c-.68,1.03-1.54,1.82-2.58,2.36ZM115.21,278.93c.66-.12,1.23-.54,1.7-1.25s.63-1.4.48-2.05-.64-1.26-1.47-1.81l-2.36-1.56-2.95,4.47,2.36,1.56c.83.55,1.58.76,2.24.64Z"/>
      <path class="cls-4" d="M129.48,281.29l-1.76,3.95,6.36,2.84-1.64,3.67-6.37-2.84-1.91,4.28,7.2,3.21-1.7,3.81-11.95-5.33,8.71-19.51,11.95,5.33-1.7,3.81-7.2-3.21Z"/>
      <path class="cls-4" d="M140.8,299.48l6.56,1.86-1.09,3.87-11.57-3.28,5.82-20.56,5.01,1.42-4.73,16.69Z"/>
      <path class="cls-4" d="M155.69,305.67c-1.58-1.09-2.77-2.52-3.58-4.28-.82-1.76-1.12-3.68-.91-5.76.21-2.08.88-3.9,2.02-5.46s2.59-2.72,4.35-3.49c1.76-.76,3.64-1.05,5.63-.85,2,.2,3.79.84,5.36,1.94,1.58,1.09,2.76,2.52,3.56,4.27.79,1.75,1.09,3.67.88,5.75-.21,2.08-.88,3.9-2.01,5.48-1.13,1.57-2.58,2.74-4.32,3.5-1.75.77-3.62,1.05-5.62.85-2-.2-3.79-.84-5.36-1.94ZM165.76,301.59c1.13-1.03,1.79-2.47,1.97-4.33.18-1.88-.18-3.43-1.09-4.65s-2.21-1.92-3.91-2.08c-1.72-.17-3.14.25-4.27,1.26s-1.79,2.46-1.97,4.36c-.19,1.88.18,3.43,1.09,4.65.91,1.22,2.22,1.92,3.94,2.09,1.7.17,3.11-.26,4.24-1.29Z"/>
      <path class="cls-4" d="M204.86,282.31l4.18,20.95-5.1,1.02-2.5-12.57-2.18,13.5-4.12.82-7.23-11.66,2.51,12.6-5.1,1.02-4.18-20.95,6.03-1.2,8.77,13.33,2.93-15.67,6-1.2Z"/>
      <path class="cls-4" d="M213.17,282.9l1.69,3.98,6.41-2.73,1.58,3.7-6.41,2.73,1.84,4.31,7.25-3.09,1.63,3.84-12.04,5.13-8.38-19.66,12.04-5.13,1.63,3.84-7.25,3.09Z"/>
      <path class="cls-4" d="M223.78,279.2c-.15-1.88.2-3.66,1.05-5.33s2.14-3.08,3.86-4.22c2.11-1.4,4.29-2.04,6.54-1.93,2.24.12,4.26.97,6.05,2.56l-4.77,3.16c-.85-.51-1.73-.74-2.64-.7-.91.04-1.78.34-2.61.89-1.34.89-2.11,2.07-2.32,3.55-.21,1.48.2,3,1.23,4.55,1.03,1.56,2.27,2.53,3.71,2.9,1.45.38,2.84.13,4.17-.76.83-.55,1.44-1.23,1.83-2.06.39-.82.52-1.72.38-2.7l4.77-3.16c.77,2.26.77,4.45,0,6.55-.77,2.11-2.21,3.86-4.33,5.26-1.72,1.14-3.52,1.78-5.39,1.92-1.87.13-3.64-.23-5.31-1.1-1.67-.86-3.09-2.18-4.25-3.94-1.17-1.76-1.83-3.58-1.98-5.46Z"/>
    </g>
    <g>
      <path class="cls-4" d="M90.17,95.11l-8.81-2.68-.89.87,5.62,5.78-3.73,3.63-14.9-15.31,6.26-6.09c1.21-1.17,2.44-1.96,3.7-2.37,1.26-.41,2.46-.45,3.6-.12s2.14.94,3.02,1.84c.99,1.02,1.59,2.21,1.79,3.57.2,1.36-.09,2.75-.88,4.17l9.43,2.63-4.21,4.1ZM77.9,90.65l2.31-2.25c.68-.66,1.03-1.33,1.05-2,.02-.67-.27-1.31-.87-1.92-.56-.58-1.18-.87-1.85-.88-.67,0-1.34.33-2.03.99l-2.31,2.25,3.69,3.8Z"/>
      <path class="cls-4" d="M90.35,72.67l2.54,3.49,5.63-4.11,2.37,3.25-5.63,4.1,2.76,3.79,6.37-4.64,2.46,3.37-10.58,7.71-12.58-17.27,10.58-7.71,2.46,3.37-6.37,4.64Z"/>
      <path class="cls-4" d="M101.93,65.57c.06-1.89.6-3.62,1.64-5.18,1.03-1.57,2.47-2.82,4.31-3.77,2.26-1.16,4.49-1.55,6.71-1.18,2.22.37,4.12,1.44,5.72,3.22l-5.09,2.61c-.79-.6-1.63-.93-2.54-.99-.91-.06-1.81.14-2.69.59-1.43.73-2.33,1.82-2.7,3.27-.38,1.45-.14,3,.71,4.66.85,1.66,1.97,2.76,3.37,3.3,1.39.54,2.8.44,4.23-.29.88-.45,1.57-1.07,2.05-1.84.48-.77.71-1.65.68-2.64l5.09-2.61c.51,2.34.27,4.51-.73,6.51s-2.63,3.59-4.89,4.75c-1.84.94-3.7,1.38-5.58,1.3-1.87-.08-3.59-.64-5.15-1.68s-2.83-2.51-3.79-4.39-1.41-3.76-1.36-5.65Z"/>
      <path class="cls-4" d="M132.91,67.97c-1.87-.42-3.51-1.29-4.93-2.62s-2.42-2.99-3.02-5c-.59-2-.65-3.94-.18-5.82.47-1.87,1.38-3.5,2.72-4.87,1.34-1.37,2.97-2.34,4.9-2.91,1.93-.57,3.83-.64,5.7-.22,1.87.42,3.5,1.29,4.9,2.61,1.4,1.32,2.39,2.99,2.98,4.99.59,2,.66,3.95.2,5.83-.46,1.88-1.35,3.51-2.68,4.87-1.33,1.37-2.96,2.34-4.89,2.91-1.93.57-3.83.64-5.69.22ZM140.7,60.4c.66-1.38.73-2.96.2-4.76-.53-1.81-1.45-3.11-2.76-3.9-1.3-.79-2.77-.94-4.41-.46-1.65.49-2.81,1.41-3.48,2.77-.67,1.36-.73,2.96-.19,4.78.53,1.81,1.45,3.11,2.76,3.9,1.3.79,2.78.94,4.43.45,1.63-.48,2.78-1.41,3.44-2.8Z"/>
      <path class="cls-4" d="M170.02,62.23l-5.18.53-10.01-12.22,1.35,13.11-5.18.53-2.19-21.25,5.18-.53,10.02,12.28-1.36-13.17,5.18-.53,2.19,21.25Z"/>
      <path class="cls-4" d="M192.92,42.24l-1.55,21.31-5.19-.38.64-8.77-8.07-.59-.64,8.77-5.19-.38,1.55-21.31,5.19.38-.61,8.35,8.07.59.61-8.35,5.19.38Z"/>
      <path class="cls-4" d="M203.22,48.61l-.96,4.21,6.79,1.55-.9,3.92-6.79-1.55-1.04,4.57,7.68,1.76-.93,4.06-12.76-2.92,4.77-20.83,12.76,2.92-.93,4.06-7.68-1.76Z"/>
      <path class="cls-4" d="M216.14,52.68c1.46-1.19,3.12-1.92,4.98-2.16,1.86-.25,3.75.01,5.67.78,2.35.94,4.12,2.37,5.3,4.29,1.18,1.92,1.62,4.06,1.32,6.43l-5.31-2.13c-.06-.99-.37-1.84-.92-2.57-.55-.72-1.29-1.27-2.21-1.64-1.49-.6-2.9-.56-4.24.1s-2.35,1.86-3.05,3.6c-.7,1.73-.79,3.3-.28,4.71.51,1.41,1.5,2.41,2.99,3.01.92.37,1.83.48,2.73.34.9-.14,1.71-.55,2.44-1.22l5.31,2.13c-1.43,1.92-3.23,3.16-5.4,3.72-2.17.56-4.43.37-6.79-.58-1.92-.77-3.47-1.89-4.64-3.35-1.17-1.47-1.88-3.13-2.11-5-.23-1.87.04-3.78.83-5.74.79-1.96,1.91-3.53,3.37-4.73Z"/>
      <path class="cls-4" d="M245.22,60.56l-10.41,18.66-4.54-2.54,10.41-18.66,4.54,2.54Z"/>
      <path class="cls-4" d="M260.7,72.6c.83,1.71,1.15,3.49.94,5.34-.21,1.85-.93,3.62-2.18,5.33-1.23,1.69-2.7,2.91-4.4,3.68-1.7.77-3.5,1.01-5.4.73-1.9-.28-3.74-1.08-5.55-2.39l-6.46-4.72,12.6-17.25,6.46,4.72c1.82,1.33,3.14,2.85,3.98,4.56ZM251.16,82.86c1.52-.22,2.86-1.13,4.02-2.72,1.16-1.59,1.62-3.15,1.38-4.68-.24-1.53-1.15-2.88-2.74-4.04l-1.99-1.45-7.32,10.03,1.99,1.45c1.59,1.16,3.14,1.63,4.66,1.41Z"/>
      <path class="cls-4" d="M258.72,95.75c-.48-1.86-.45-3.72.09-5.58.54-1.87,1.56-3.52,3.08-4.96,1.52-1.44,3.22-2.37,5.1-2.81,1.88-.43,3.74-.36,5.57.21,1.83.57,3.44,1.58,4.82,3.04,1.38,1.46,2.31,3.11,2.79,4.97.48,1.86.44,3.71-.1,5.55-.54,1.84-1.57,3.49-3.09,4.93-1.52,1.44-3.22,2.38-5.1,2.83-1.89.45-3.74.39-5.56-.18-1.82-.56-3.43-1.57-4.81-3.03-1.38-1.46-2.31-3.11-2.79-4.97ZM269.01,99.24c1.53-.04,2.97-.7,4.32-1.99,1.37-1.3,2.11-2.71,2.22-4.23.11-1.52-.42-2.9-1.59-4.13-1.19-1.25-2.54-1.86-4.06-1.84s-2.96.7-4.35,2.01c-1.37,1.3-2.11,2.71-2.22,4.23-.11,1.52.43,2.9,1.62,4.15,1.17,1.24,2.53,1.83,4.06,1.79Z"/>
    </g>
  </g>
</svg>