<?xml version="1.0" encoding="UTF-8"?>
<svg id="Camada_2" data-name="Camada 2" xmlns="http://www.w3.org/2000/svg" viewBox="0 0 752.75 360.44">
  <defs>
    <style>
      .cls-1 {
        fill: #fff;
      }

      .cls-2 {
        fill: #29485d;
      }
    </style>
  </defs>
  <g id="_Ñëîé_4" data-name="Ñëîé 4">
    <g>
      <polygon class="cls-2" points="360.57 180.22 351.15 190.96 359.17 202.78 348.48 212.26 354.95 224.99 343.16 233.05 347.97 246.5 335.25 253 338.33 266.95 324.9 271.8 326.2 286.03 312.26 289.16 311.78 303.44 297.56 304.81 295.31 318.91 281.03 318.5 277.03 332.22 262.91 330.02 257.23 343.12 243.5 339.17 236.2 351.45 223.09 345.8 214.3 357.06 202 349.8 191.87 359.87 180.57 351.13 169.27 359.87 159.14 349.8 146.83 357.06 138.05 345.8 124.93 351.45 117.63 339.17 103.91 343.12 98.22 330.02 84.1 332.21 80.11 318.5 65.83 318.91 63.57 304.81 49.35 303.44 48.87 289.16 34.93 286.03 36.24 271.8 22.8 266.95 25.88 253 13.16 246.5 17.98 233.05 6.18 224.99 12.65 212.26 1.97 202.78 9.99 190.96 .57 180.22 9.99 169.48 1.97 157.66 12.65 148.18 6.18 135.44 17.98 127.39 13.16 113.94 25.88 107.43 22.8 93.48 36.24 88.63 34.94 74.41 48.87 71.27 49.35 57 63.57 55.63 65.83 41.52 80.11 41.93 84.11 28.22 98.22 30.41 103.91 17.31 117.64 21.26 124.93 8.98 138.05 14.64 146.83 3.37 159.14 10.64 169.27 .57 180.57 9.31 191.87 .57 202 10.64 214.3 3.37 223.09 14.64 236.21 8.98 243.5 21.26 257.23 17.31 262.92 30.41 277.03 28.22 281.03 41.93 295.31 41.52 297.56 55.63 311.78 57 312.26 71.28 326.2 74.41 324.9 88.63 338.33 93.49 335.25 107.43 347.97 113.94 343.16 127.39 354.95 135.44 348.48 148.18 359.17 157.66 351.15 169.48 360.57 180.22"/>
      <path class="cls-2" d="M191.9,360.44l-11.34-8.77-11.34,8.77-10.16-10.1-12.34,7.28-8.81-11.3-13.16,5.67-7.32-12.32-13.77,3.96-5.71-13.14-14.16,2.2-4.01-13.76-14.32.41-2.26-14.15-14.26-1.38-.48-14.32-13.98-3.14,1.31-14.27-13.48-4.87,3.09-13.99-12.76-6.52,4.83-13.49-11.83-8.08,6.49-12.77-10.72-9.51,8.04-11.86-9.45-10.77,9.45-10.77-8.04-11.86,10.72-9.51-6.49-12.77,11.83-8.08-4.83-13.49,12.76-6.52-3.09-13.99,13.48-4.87-1.31-14.27,13.98-3.14.48-14.32,14.26-1.38,2.26-14.15,14.32.41,4.01-13.76,14.16,2.2,5.71-13.14,13.77,3.96,7.32-12.32,13.16,5.67,8.81-11.3,12.34,7.29,10.16-10.1,11.34,8.77,11.34-8.77,10.16,10.1,12.34-7.29,8.82,11.3,13.16-5.67,7.32,12.32,13.77-3.96,5.71,13.14,14.16-2.2,4.01,13.76,14.32-.41,2.26,14.15,14.26,1.38.48,14.32,13.98,3.14-1.31,14.27,13.48,4.87-3.09,13.99,12.76,6.52-4.83,13.49,11.83,8.08-6.49,12.77,10.72,9.51-8.04,11.86,9.45,10.77-9.45,10.77,8.04,11.86-10.72,9.51,6.49,12.77-11.83,8.08,4.83,13.49-12.76,6.52,3.09,13.99-13.48,4.87,1.31,14.27-13.98,3.14-.48,14.32-14.26,1.38-2.26,14.15-14.32-.41-4.01,13.76-14.16-2.2-5.71,13.14-13.77-3.96-7.32,12.32-13.16-5.67-8.82,11.3-12.34-7.29-10.16,10.1ZM180.57,350.59l11.27,8.71,10.1-10.04,12.26,7.24,8.76-11.23,13.08,5.64,7.27-12.24,13.68,3.94,5.67-13.06,14.07,2.19,3.99-13.67,14.23.41,2.25-14.06,14.17-1.37.48-14.23,13.89-3.12-1.3-14.18,13.39-4.84-3.07-13.91,12.68-6.48-4.8-13.41,11.76-8.03-6.45-12.69,10.65-9.45-7.99-11.78,9.39-10.71-9.39-10.71,7.99-11.78-10.65-9.45,6.45-12.69-11.76-8.03,4.8-13.41-12.68-6.48,3.07-13.9-13.39-4.84,1.3-14.18-13.89-3.12-.48-14.23-14.17-1.37-2.25-14.06-14.23.41-3.99-13.67-14.07,2.19-5.67-13.06-13.68,3.94-7.27-12.24-13.08,5.64-8.76-11.23-12.26,7.24-10.1-10.04-11.26,8.71-11.27-8.71-10.1,10.04-12.26-7.24-8.76,11.23-13.08-5.64-7.27,12.24-13.68-3.94-5.67,13.06-14.07-2.19-3.99,13.67-14.23-.41-2.25,14.06-14.17,1.37-.48,14.23-13.89,3.12,1.3,14.18-13.39,4.84,3.07,13.9-12.68,6.48,4.8,13.41-11.76,8.03,6.45,12.69-10.65,9.45,7.99,11.78-9.39,10.7,9.39,10.71-7.99,11.78,10.65,9.45-6.45,12.69,11.76,8.03-4.8,13.41,12.68,6.48-3.07,13.9,13.39,4.84-1.3,14.18,13.89,3.12.48,14.23,14.17,1.37,2.25,14.06,14.23-.41,3.99,13.67,14.07-2.19,5.67,13.06,13.68-3.94,7.27,12.24,13.08-5.64,8.76,11.23,12.26-7.24,10.1,10.04,11.27-8.71Z"/>
    </g>
    <path class="cls-1" d="M180.57,335.96c-85.88,0-155.75-69.87-155.75-155.75S94.69,24.47,180.57,24.47s155.75,69.87,155.75,155.75-69.87,155.75-155.75,155.75ZM180.57,26.96C96.06,26.96,27.31,95.71,27.31,180.22s68.75,153.25,153.25,153.25,153.25-68.75,153.25-153.25S265.07,26.96,180.57,26.96Z"/>
    <path class="cls-1" d="M178.81,328.22c0-1.02.82-1.84,1.84-1.84h0c1.01,0,1.84.82,1.84,1.84h0c0,1.01-.82,1.84-1.84,1.84h0c-1.01,0-1.84-.82-1.84-1.84ZM169.46,329.65h0c-1.01-.07-1.77-.95-1.7-1.97h0c.07-1.01.96-1.77,1.97-1.7h0c1.01.08,1.77.96,1.7,1.97h0c-.07.97-.88,1.71-1.84,1.71h0s-.09,0-.13,0ZM189.87,327.94c-.07-1.01.69-1.89,1.7-1.97h0c1.01-.07,1.89.69,1.97,1.7h0c.07,1.01-.69,1.89-1.7,1.97h0s-.09,0-.13,0h0c-.96,0-1.76-.74-1.84-1.71ZM158.33,328.42c-1.01-.15-1.7-1.09-1.55-2.09h0c.15-1.01,1.08-1.7,2.09-1.55h0c1,.15,1.69,1.09,1.55,2.09h0c-.14.91-.93,1.57-1.82,1.57h0c-.09,0-.18,0-.27-.02ZM200.88,326.85c-.15-1.01.54-1.94,1.55-2.09h0c1-.15,1.94.54,2.09,1.54h0c.15,1.01-.54,1.94-1.54,2.09h-.01c-.09.02-.18.02-.27.02h0c-.9,0-1.68-.65-1.82-1.56ZM147.32,326.35c-.99-.22-1.61-1.21-1.39-2.19h0c.22-1,1.21-1.62,2.2-1.39h0c.99.22,1.61,1.21,1.39,2.2h0c-.2.85-.96,1.43-1.8,1.43h0c-.13,0-.27,0-.4-.05ZM211.78,324.94c-.22-.99.39-1.98,1.39-2.21h0c.99-.22,1.97.4,2.2,1.39h0c.22.99-.4,1.97-1.39,2.2h0c-.13.03-.27.04-.41.04h0c-.84,0-1.59-.57-1.79-1.42ZM136.49,323.47h0c-.97-.3-1.51-1.33-1.22-2.3h0c.3-.97,1.33-1.51,2.3-1.22h0c.97.3,1.52,1.33,1.22,2.3h0c-.24.79-.97,1.3-1.76,1.3h0c-.18,0-.36-.03-.54-.08ZM222.51,322.21c-.31-.97.24-2,1.21-2.3h0c.97-.3,2,.24,2.3,1.21h0c.3.97-.25,2-1.22,2.3h0c-.18.06-.36.08-.54.08h0c-.78,0-1.51-.5-1.75-1.29ZM125.9,319.77c-.94-.37-1.41-1.44-1.04-2.38h0c.37-.95,1.44-1.41,2.38-1.04h0c.95.37,1.41,1.43,1.05,2.38h0c-.29.73-.98,1.17-1.72,1.17h0c-.22,0-.45-.04-.67-.13ZM232.99,318.68c-.37-.95.1-2.01,1.04-2.39h0c.94-.37,2.01.1,2.39,1.04h0c.37.95-.1,2.01-1.04,2.39h0c-.22.08-.45.12-.67.12h0c-.74,0-1.43-.44-1.72-1.16ZM115.62,315.29h0c-.91-.44-1.3-1.54-.86-2.46h0c.44-.91,1.54-1.3,2.46-.85h0c.91.44,1.3,1.53.86,2.45h0c-.32.66-.98,1.04-1.66,1.04h0c-.27,0-.54-.06-.8-.18ZM243.18,314.38c-.45-.92-.06-2.02.85-2.46h0c.91-.44,2.01-.06,2.45.86h0c.44.91.06,2.01-.86,2.45h0c-.26.13-.53.19-.8.19h0c-.68,0-1.34-.39-1.65-1.04ZM105.71,310.05c-.88-.51-1.18-1.64-.67-2.51h0c.51-.88,1.63-1.18,2.51-.68h0c.88.51,1.18,1.64.68,2.52h0c-.35.59-.96.92-1.6.92h0c-.31,0-.63-.08-.92-.25ZM253.01,309.32c-.51-.88-.21-2,.67-2.51h0c.88-.51,2.01-.21,2.51.67h0c.51.88.21,2-.67,2.51h0c-.29.17-.6.25-.92.25h0c-.63,0-1.25-.33-1.59-.92ZM96.22,304.08c-.83-.57-1.05-1.72-.48-2.55h0c.57-.84,1.72-1.06,2.56-.49h0c.83.58,1.05,1.72.48,2.56h0c-.36.52-.94.8-1.52.8h0c-.36,0-.72-.1-1.04-.32ZM262.44,303.54c-.57-.84-.35-1.98.48-2.55h0c.84-.58,1.99-.36,2.56.48h0c.57.84.36,1.98-.48,2.55h0c-.32.22-.68.33-1.03.33h0c-.59,0-1.17-.28-1.53-.81ZM87.21,297.43c-.79-.64-.93-1.8-.29-2.59h0c.63-.79,1.79-.92,2.58-.29h0c.79.63.93,1.79.29,2.58h0c-.36.46-.9.7-1.44.7h0c-.4,0-.8-.13-1.14-.4ZM271.42,297.08c-.63-.8-.5-1.96.29-2.59h0c.79-.63,1.95-.5,2.58.29h0c.64.79.51,1.95-.29,2.59h0c-.33.27-.74.4-1.14.4h0c-.54,0-1.08-.24-1.44-.69ZM78.72,290.12h0c-.75-.7-.79-1.86-.1-2.6h0c.69-.75,1.85-.79,2.6-.1h0c.74.69.79,1.85.09,2.6h0c-.36.39-.85.59-1.34.59h0c-.45,0-.9-.16-1.25-.49ZM279.89,289.96c-.69-.75-.65-1.91.1-2.6h0c.74-.69,1.91-.65,2.6.09h0c.69.75.65,1.91-.1,2.61h0c-.35.32-.8.48-1.25.48h0c-.49,0-.99-.19-1.35-.58ZM70.79,282.2h0c-.69-.74-.65-1.91.09-2.6h0c.75-.69,1.91-.65,2.6.1h0c.69.74.65,1.9-.09,2.6h0c-.36.32-.81.49-1.25.49h0c-.5,0-.99-.2-1.35-.59ZM287.81,282.23c-.74-.69-.78-1.85-.09-2.6h0c.69-.74,1.85-.79,2.6-.1h0c.74.7.78,1.86.09,2.6h0c-.36.39-.85.59-1.35.59h0c-.44,0-.89-.16-1.25-.49ZM63.47,273.72c-.63-.8-.5-1.95.29-2.59h0c.8-.63,1.95-.5,2.59.29h0c.63.79.5,1.95-.29,2.58h0c-.34.28-.75.41-1.15.41h0c-.54,0-1.07-.24-1.44-.69ZM295.14,273.93c-.79-.63-.92-1.79-.29-2.58h0c.63-.8,1.79-.93,2.58-.29h0c.8.63.93,1.79.3,2.58h0c-.37.46-.9.69-1.44.69h0c-.41,0-.81-.13-1.15-.4ZM56.81,264.72c-.57-.84-.36-1.99.48-2.56h0c.84-.57,1.98-.36,2.56.48h0c.57.84.35,1.98-.48,2.56h0c-.32.21-.68.32-1.04.32h0c-.59,0-1.16-.28-1.52-.8ZM301.83,265.11c-.84-.57-1.05-1.71-.48-2.55h0c.57-.84,1.72-1.06,2.55-.48h0c.84.57,1.06,1.71.49,2.55h0c-.36.52-.94.8-1.52.8h0c-.36,0-.72-.1-1.04-.32ZM50.84,255.24c-.51-.87-.21-2,.67-2.51h0c.88-.51,2-.21,2.51.67h0c.51.88.21,2-.67,2.51h0c-.29.17-.61.25-.92.25h0c-.63,0-1.25-.33-1.59-.92ZM307.85,255.82c-.88-.51-1.18-1.64-.67-2.51h0c.51-.89,1.64-1.19,2.52-.68h0c.88.51,1.18,1.64.67,2.52h0c-.35.58-.96.91-1.6.91h0c-.31,0-.62-.08-.91-.24ZM45.59,245.35h0c-.44-.91-.06-2.01.86-2.45h0c.91-.44,2.01-.06,2.45.85h0c.44.92.06,2.02-.85,2.46h0c-.26.12-.53.18-.8.18h0c-.69,0-1.34-.38-1.66-1.04ZM313.15,246.09c-.92-.44-1.3-1.53-.86-2.45h0c.44-.91,1.54-1.3,2.46-.86h0c.91.44,1.29,1.54.85,2.46h0c-.31.66-.97,1.04-1.65,1.04h0c-.27,0-.54-.06-.8-.19ZM41.1,235.1c-.37-.94.09-2.01,1.04-2.38h0c.94-.38,2.01.09,2.38,1.03h0c.37.95-.09,2.01-1.03,2.39h0c-.22.08-.45.13-.68.13h0c-.73,0-1.42-.45-1.71-1.17ZM317.71,236c-.95-.37-1.41-1.44-1.04-2.38h0c.37-.95,1.44-1.41,2.38-1.04h0c.95.37,1.41,1.44,1.04,2.38h0c-.28.73-.97,1.17-1.71,1.17h0c-.22,0-.45-.04-.67-.13ZM37.39,224.53c-.3-.97.25-2,1.22-2.3h0c.96-.3,1.99.24,2.29,1.21h.01c.3.97-.25,2-1.22,2.3h0c-.18.06-.36.09-.54.09h0c-.79,0-1.52-.51-1.76-1.3ZM321.5,225.59c-.97-.3-1.52-1.33-1.22-2.3h0c.3-.97,1.33-1.51,2.3-1.21h0c.97.3,1.51,1.33,1.22,2.29h0c-.25.79-.97,1.3-1.76,1.3h0c-.18,0-.36-.02-.54-.08ZM34.49,213.71c-.23-.99.39-1.98,1.38-2.2h0c.99-.23,1.98.39,2.2,1.38h0c.23.99-.39,1.98-1.38,2.2h0c-.14.03-.27.05-.41.05h0c-.84,0-1.6-.58-1.79-1.43ZM324.49,214.94c-.99-.23-1.61-1.21-1.39-2.2h0c.23-.99,1.21-1.61,2.2-1.39h0c.99.23,1.61,1.21,1.39,2.2h0c-.2.85-.96,1.43-1.79,1.43h0c-.14,0-.27,0-.41-.04ZM32.41,202.7c-.15-1,.54-1.94,1.54-2.09h0c1.01-.15,1.94.54,2.09,1.55h0c.16,1-.54,1.93-1.54,2.09h0c-.09,0-.18.02-.28.02h0c-.89,0-1.68-.65-1.81-1.57ZM326.67,204.09c-1.01-.15-1.7-1.09-1.55-2.09h0c.15-1.01,1.08-1.7,2.09-1.55h0c1,.15,1.7,1.09,1.55,2.09h0c-.14.91-.92,1.57-1.82,1.57h0c-.09,0-.18,0-.27-.02ZM31.16,191.57c-.08-1.01.68-1.89,1.69-1.97h0c1.01-.07,1.9.69,1.97,1.7h0c.08,1.01-.68,1.89-1.69,1.97h-.14c-.96,0-1.76-.73-1.83-1.7ZM328.03,193.11c-1.02-.08-1.77-.96-1.7-1.97h0c.07-1.02.95-1.77,1.97-1.7h0c1.01.08,1.77.96,1.7,1.97h0c-.08.96-.88,1.7-1.83,1.7h-.14ZM30.73,180.38h0c0-1.01.82-1.84,1.84-1.84h0c1.01,0,1.84.82,1.84,1.84h0c0,1.01-.82,1.84-1.84,1.84h0c-1.01,0-1.84-.82-1.84-1.84ZM326.73,180.22c0-.05,0-.1,0-.16h0s0-.1,0-.15h0c0-1.02.82-1.84,1.84-1.84h0c1.01,0,1.84.82,1.84,1.83h0c0,.05,0,.11,0,.16h0s0,.11,0,.16h0c0,1.01-.82,1.84-1.84,1.84h0c-1.02,0-1.84-.83-1.84-1.84ZM32.83,171.16c-1.01-.08-1.77-.96-1.7-1.97h0c.08-1.01.96-1.78,1.97-1.7h0c1.01.07,1.77.95,1.7,1.97h0c-.07.96-.88,1.7-1.83,1.7h-.14ZM326.3,168.99h.01c-.08-1.02.68-1.9,1.69-1.98h0c1.01-.07,1.89.69,1.97,1.7h0c.08,1.01-.68,1.89-1.69,1.97h0s-.09,0-.14,0h0c-.95,0-1.76-.74-1.84-1.7ZM33.91,160.14c-1.01-.15-1.7-1.08-1.55-2.08h0c.15-1.01,1.08-1.7,2.09-1.55h0c1,.15,1.7,1.08,1.55,2.09h0c-.14.91-.93,1.56-1.82,1.56h0c-.09,0-.18,0-.27-.02ZM325.07,158.13h0c-.15-1,.54-1.94,1.54-2.09h0c1.01-.15,1.95.54,2.1,1.54h0c.15,1-.54,1.94-1.54,2.09h0c-.1.02-.19.02-.28.02h0c-.9,0-1.68-.65-1.82-1.56ZM35.8,149.24c-.99-.22-1.61-1.21-1.38-2.2h0c.22-.99,1.2-1.61,2.2-1.38h0c.99.22,1.61,1.21,1.38,2.19h0c-.19.86-.95,1.44-1.79,1.44h0c-.13,0-.27-.02-.41-.05ZM323.03,147.4c-.23-.99.39-1.98,1.38-2.21h0c.99-.22,1.98.39,2.2,1.38h0c.23.99-.39,1.98-1.38,2.21h0c-.14.03-.27.04-.41.04h0c-.84,0-1.59-.57-1.79-1.42ZM38.52,138.51c-.98-.29-1.52-1.32-1.22-2.29h0c.29-.97,1.32-1.52,2.29-1.22h0c.97.3,1.52,1.33,1.22,2.3h0c-.24.79-.97,1.3-1.76,1.3h0c-.17,0-.36-.03-.53-.09ZM320.19,136.85c-.3-.97.24-2,1.21-2.3h0c.97-.31,2,.24,2.3,1.21h0c.3.97-.24,2-1.21,2.3h0c-.18.06-.36.08-.55.08h0c-.78,0-1.51-.5-1.75-1.29ZM42.03,128.01c-.95-.37-1.41-1.44-1.04-2.38h0c.37-.95,1.44-1.42,2.38-1.05h0c.95.37,1.41,1.44,1.04,2.39h0c-.28.72-.98,1.17-1.71,1.17h0c-.22,0-.45-.04-.67-.13ZM316.56,126.54c-.37-.94.09-2.01,1.03-2.38h0c.95-.38,2.02.09,2.39,1.03h0c.37.94-.09,2.01-1.04,2.39h0c-.22.08-.44.12-.67.12h0c-.73,0-1.42-.44-1.71-1.16ZM46.33,117.8c-.92-.44-1.3-1.54-.86-2.46h0c.43-.91,1.53-1.3,2.45-.86h0c.92.45,1.3,1.54.86,2.46h0c-.32.66-.98,1.04-1.66,1.04h0c-.27,0-.54-.06-.79-.18ZM312.17,116.55c-.44-.92-.06-2.02.85-2.46h0c.92-.44,2.02-.06,2.46.85h0c.44.92.06,2.02-.85,2.46h0c-.26.12-.54.18-.8.18h0c-.69,0-1.34-.38-1.66-1.03ZM51.37,107.94c-.87-.5-1.18-1.63-.67-2.51h0c.51-.88,1.63-1.18,2.51-.67h0c.88.51,1.18,1.63.68,2.51h0c-.34.59-.96.92-1.6.92h0c-.31,0-.63-.08-.92-.25ZM307.04,106.9c-.51-.87-.21-2,.67-2.51h0c.88-.51,2-.21,2.51.67h0c.51.87.21,2-.67,2.51h0c-.29.17-.6.25-.92.25h0c-.63,0-1.25-.33-1.59-.92ZM57.15,98.5c-.84-.58-1.06-1.72-.49-2.56h0c.58-.84,1.72-1.06,2.56-.48h0c.84.57,1.05,1.71.48,2.55h0c-.35.52-.93.8-1.52.8h0c-.36,0-.72-.1-1.03-.31ZM301.21,97.67c-.58-.83-.37-1.98.47-2.55h0c.84-.58,1.98-.37,2.56.47h0c.57.84.36,1.98-.48,2.56h0c-.32.22-.68.32-1.04.32h0c-.58,0-1.16-.28-1.51-.8ZM63.61,89.51c-.8-.64-.93-1.79-.3-2.59h0c.64-.79,1.79-.92,2.59-.29h0c.79.63.92,1.79.29,2.58h0c-.36.46-.9.7-1.44.7h0c-.4,0-.8-.14-1.14-.4ZM294.7,88.9h0c-.63-.8-.5-1.95.29-2.59h0c.79-.63,1.95-.51,2.59.29h0c.64.79.51,1.95-.28,2.58h0c-.34.27-.74.41-1.15.41h0c-.54,0-1.07-.24-1.43-.69ZM70.72,81.02c-.75-.69-.79-1.85-.1-2.59h0c.69-.75,1.85-.8,2.6-.11h0c.74.69.79,1.86.1,2.6h0c-.37.39-.86.59-1.35.59h0c-.45,0-.9-.16-1.25-.49ZM287.55,80.63c-.69-.74-.65-1.91.09-2.6h0c.74-.69,1.91-.65,2.6.09h0c.69.75.65,1.91-.09,2.6h0c-.36.33-.81.5-1.25.5h0c-.5,0-.99-.2-1.35-.59ZM78.44,73.09c-.69-.74-.65-1.91.09-2.6h0c.75-.69,1.91-.64,2.6.1h0c.69.74.65,1.9-.09,2.6h0c-.36.32-.81.49-1.26.49h0c-.49,0-.98-.2-1.34-.59ZM279.81,72.91c-.75-.69-.79-1.85-.1-2.6h0c.69-.74,1.85-.79,2.6-.1h0c.74.69.79,1.86.1,2.6h0c-.36.39-.86.59-1.35.59h0c-.45,0-.9-.16-1.25-.49ZM86.72,65.76c-.63-.79-.5-1.95.29-2.59h0c.79-.63,1.95-.5,2.58.29h0c.64.79.51,1.95-.28,2.59h0c-.34.27-.75.4-1.15.4h0c-.54,0-1.07-.24-1.44-.69ZM271.52,65.79c-.8-.63-.93-1.79-.3-2.58h0c.63-.8,1.79-.93,2.59-.29h0c.79.63.92,1.78.29,2.58h0c-.36.46-.9.69-1.44.69h0c-.4,0-.81-.13-1.14-.4ZM95.53,59.06c-.57-.83-.36-1.98.48-2.55h0c.84-.58,1.98-.36,2.56.47h0c.57.84.35,1.99-.48,2.56h0c-.32.22-.68.32-1.04.32h0c-.59,0-1.16-.28-1.52-.8ZM262.71,59.31h0c-.85-.57-1.06-1.72-.49-2.56h0c.57-.84,1.71-1.05,2.55-.48h0c.84.57,1.06,1.71.49,2.55h0c-.36.53-.93.81-1.52.81h0c-.36,0-.72-.11-1.04-.32ZM104.81,53.04c-.51-.88-.21-2,.67-2.51h0c.88-.51,2-.21,2.51.67h0c.51.87.21,2-.67,2.51h0c-.29.17-.6.25-.92.25h0c-.63,0-1.25-.33-1.59-.92ZM253.45,53.5h0c-.88-.51-1.18-1.63-.67-2.51h0c.5-.88,1.63-1.19,2.51-.68h0c.88.51,1.18,1.63.67,2.51h0c-.34.59-.96.92-1.59.92h0c-.31,0-.63-.08-.92-.24ZM114.51,47.73c-.44-.91-.06-2.01.85-2.45h0c.92-.45,2.02-.06,2.46.85h0c.44.91.06,2.01-.85,2.46h0c-.26.12-.53.18-.8.18h0c-.69,0-1.34-.38-1.66-1.04ZM243.78,48.4c-.92-.44-1.3-1.54-.86-2.46h0c.44-.91,1.54-1.3,2.45-.86h0c.92.44,1.3,1.54.86,2.45h0c-.31.66-.97,1.05-1.66,1.05h0c-.26,0-.53-.06-.79-.18ZM124.58,43.17c-.37-.95.09-2.02,1.03-2.39h0c.95-.37,2.02.09,2.39,1.04h0c.37.94-.09,2.01-1.04,2.38h0c-.22.09-.45.13-.67.13h0c-.73,0-1.43-.44-1.71-1.16ZM233.75,44.03c-.95-.37-1.41-1.43-1.04-2.38h0c.37-.94,1.43-1.41,2.38-1.04h0c.94.37,1.41,1.43,1.04,2.38h0c-.28.73-.98,1.17-1.71,1.17h0c-.22,0-.45-.04-.67-.13ZM134.97,39.36c-.3-.96.24-1.99,1.21-2.29h0c.97-.31,2,.24,2.3,1.21h0c.3.97-.24,2-1.21,2.3h0c-.18.05-.36.08-.54.08h0c-.79,0-1.51-.5-1.76-1.3ZM223.42,40.44h0c-.97-.3-1.52-1.33-1.22-2.3h0c.3-.97,1.32-1.52,2.3-1.22h0c.98.3,1.52,1.33,1.23,2.3h0c-.25.79-.98,1.3-1.76,1.3h0c-.18,0-.36-.03-.54-.08ZM145.62,36.36c-.23-.99.39-1.98,1.38-2.2h0c.99-.23,1.98.39,2.2,1.38h0c.23.99-.39,1.97-1.38,2.2h0c-.14.03-.27.05-.41.05h0c-.84,0-1.6-.58-1.79-1.43ZM212.86,37.64c-.99-.23-1.61-1.21-1.39-2.2h0c.22-.99,1.21-1.61,2.2-1.39h0c.99.22,1.61,1.21,1.39,2.2h0c-.2.85-.96,1.43-1.8,1.43h0c-.13,0-.26-.01-.4-.04ZM156.47,34.16c-.16-1,.53-1.94,1.54-2.09h0c1-.15,1.94.54,2.09,1.54h0c.15,1.01-.54,1.94-1.54,2.1h0c-.1.01-.19.02-.28.02h0c-.89,0-1.68-.66-1.81-1.57ZM202.12,35.63h0c-1.01-.14-1.7-1.08-1.55-2.08h0c.15-1.01,1.08-1.7,2.09-1.55h0c1,.15,1.69,1.08,1.54,2.09h0c-.13.91-.91,1.56-1.81,1.56h0c-.09,0-.18,0-.27-.02ZM167.44,32.78c-.08-1.01.68-1.89,1.7-1.97h0c1.01-.08,1.89.68,1.97,1.7h0c.07,1.01-.68,1.89-1.7,1.97h-.13c-.96,0-1.77-.73-1.84-1.7ZM191.26,34.44h0c-1.02-.07-1.78-.95-1.71-1.96h0c.08-1.02.96-1.78,1.97-1.7h0c1.01.07,1.77.95,1.7,1.96h0c-.07.97-.88,1.71-1.83,1.71h0s-.09,0-.13-.01ZM178.49,32.22c0-1.01.83-1.84,1.84-1.84h0c1.02,0,1.84.82,1.84,1.84h0c0,1.01-.82,1.84-1.83,1.84h0c-1.02,0-1.84-.82-1.85-1.84Z"/>
    <g>
      <g>
        <g>
          <g>
            <g>
              <g>
                <path class="cls-1" d="M128.61,296.33c-3.26,1.39-6.85,2.4-9.63,3.01-2.78.61-4.74.85-4.74.86,0,0,1.82-.42,4.36-1.27,2.54-.85,5.79-2.15,8.65-3.78.71-.41,1.41-.83,2.06-1.27.02-.01.04-.03.06-.04-3.75-1.04-7.5-1.55-11.01-1.29-6.84.48-10.41,4.01-12.19,8.88,4.36,2.09,10.46,3.53,14.64,3.12,6.82-.66,10.15-4.56,10.03-9.24-.71.36-1.46.71-2.22,1.04Z"/>
                <path class="cls-1" d="M119.28,304.74c-3.9,0-9.06-1.23-13.17-3.2l-.1-.05.04-.11c2.04-5.59,6.07-8.52,12.3-8.96,3.34-.25,7.06.19,11.05,1.3l.26.07-.28.19c-.58.39-1.26.81-2.07,1.27-3.3,1.88-6.85,3.18-8.67,3.79-.77.26-1.47.47-2.09.66.7-.13,1.51-.29,2.4-.48,1.99-.44,5.88-1.4,9.6-3,.83-.36,1.56-.7,2.22-1.03l.18-.09v.2c.14,5.16-3.74,8.76-10.13,9.37-.48.05-1,.07-1.54.07ZM106.33,301.36c4.62,2.19,10.55,3.44,14.47,3.06,6.16-.6,9.94-4,9.92-8.92-.62.31-1.29.62-2.05.95h0c-3.75,1.6-7.65,2.58-9.65,3.01-1.61.35-3.27.66-4.69.85h-.06s-.02-.1-.02-.1l-.12-.04s.01-.04.02-.05c.01-.02.03-.03.05-.04.02,0,.04-.01.06-.02.6-.15,2.23-.56,4.31-1.26,1.81-.61,5.35-1.9,8.63-3.77.73-.42,1.35-.79,1.88-1.15-3.86-1.05-7.46-1.46-10.7-1.21-6.09.43-10.03,3.27-12.04,8.69Z"/>
              </g>
              <g>
                <path class="cls-1" d="M128.82,290.38c-.85-3.3-1.15-6.5-1.24-8.86-.08-2.36.04-3.89.04-3.89,0,0,.08,1.58.48,3.99.4,2.41,1.15,5.66,2.46,8.92.33.81.68,1.63,1.07,2.42.01.02.02.05.04.07,2.17-1.56,3.43-3.8,3.61-6.48.33-5.27-3.35-10.4-7.44-15.44-2.59,1.41-5.26,4.05-5.93,6.99-1.11,4.75,1.78,10.5,7.6,14.61-.26-.77-.49-1.55-.69-2.33Z"/>
                <path class="cls-1" d="M131.62,293.22l-.1-.21c-.35-.71-.7-1.51-1.08-2.43-1.38-3.44-2.1-6.76-2.46-8.94-.11-.69-.21-1.38-.29-2.04,0,.62,0,1.28.03,1.92.08,2.15.35,5.42,1.23,8.84h0c.22.85.45,1.61.69,2.32l.12.36-.31-.22c-5.79-4.09-8.79-9.87-7.65-14.74.73-3.21,3.68-5.82,5.99-7.07l.09-.05.07.08c3.96,4.88,7.8,10.11,7.47,15.53-.18,2.71-1.45,4.98-3.66,6.57l-.12.09ZM127.74,277.6s0,.05,0,.07c.08,1.14.25,2.54.48,3.92.36,2.17,1.08,5.47,2.45,8.89.36.89.7,1.67,1.04,2.36,2.08-1.54,3.27-3.72,3.44-6.3.33-5.3-3.44-10.45-7.35-15.27-2.25,1.25-5.07,3.77-5.77,6.86-1.09,4.68,1.74,10.24,7.24,14.26-.2-.61-.39-1.26-.57-1.97h0c-.89-3.44-1.17-6.73-1.24-8.89-.05-1.36-.04-2.72.03-3.85v-.05s.13,0,.13,0l.04-.12h0c.05.02.08.05.08.09Z"/>
              </g>
            </g>
            <g>
              <g>
                <path class="cls-1" d="M105.79,282.64c-3.24.77-6.71,1.12-9.36,1.24-2.66.12-4.49.03-4.49.04,0,0,1.74-.1,4.23-.48,2.49-.38,5.71-1.07,8.65-2.11.73-.26,1.45-.54,2.14-.84.02,0,.04-.02.06-.03-3.16-1.58-6.47-2.66-9.72-2.98-6.34-.65-10.34,2.07-12.97,6.31,3.55,2.63,8.78,4.94,12.64,5.22,6.3.48,10.14-2.59,11.06-6.96-.72.22-1.47.42-2.23.6Z"/>
                <path class="cls-1" d="M98.22,289.17c-.41,0-.83-.02-1.26-.05-3.67-.27-8.9-2.43-12.7-5.25l-.09-.07.06-.1c3.02-4.88,7.31-6.96,13.09-6.36,3.11.31,6.39,1.32,9.76,2.99l.25.12-.29.12c-.66.29-1.36.57-2.17.86-3.39,1.21-6.89,1.85-8.67,2.12-.63.1-1.27.18-1.9.26.63,0,1.35-.02,2.14-.06,1.9-.09,5.64-.36,9.34-1.24.83-.2,1.56-.39,2.23-.6l.2-.06-.04.21c-.93,4.46-4.69,7.11-9.93,7.11ZM84.5,283.74c3.76,2.76,8.88,4.87,12.48,5.13,5.67.44,9.82-2.11,10.88-6.65-.62.18-1.29.36-2.04.54h0c-3.72.88-7.48,1.15-9.38,1.24-2.07.09-3.67.06-4.44.04h-.05s0-.12,0-.12l-.11-.07s.02-.02.03-.03c.02-.01.04-.02.06-.02.02,0,.04,0,.07,0,1.26-.09,2.73-.26,4.16-.48,1.77-.27,5.25-.9,8.62-2.11.72-.26,1.36-.51,1.94-.76-3.25-1.59-6.43-2.55-9.43-2.85-5.64-.58-9.83,1.43-12.79,6.15Z"/>
              </g>
              <g>
                <path class="cls-1" d="M107.26,277.15c-.07-3.21.33-6.23.75-8.44.42-2.21.84-3.61.84-3.62,0,0-.25,1.48-.39,3.79-.14,2.3-.14,5.45.34,8.69.12.81.27,1.62.45,2.43,0,.02.01.05.02.07,2.3-1.1,3.92-2.96,4.67-5.42,1.44-4.84-.8-10.22-3.54-15.6-2.66.89-5.66,2.92-6.87,5.55-1.99,4.25-.52,10.06,3.86,14.83-.07-.76-.11-1.52-.13-2.28Z"/>
                <path class="cls-1" d="M109.18,280.25l-.05-.23c-.17-.76-.32-1.56-.45-2.44-.51-3.42-.46-6.63-.34-8.71.04-.61.09-1.22.15-1.81-.11.49-.23,1.05-.35,1.67-.38,2.01-.82,5.1-.75,8.42.02.82.06,1.56.12,2.27l.03.37-.25-.27c-4.38-4.77-5.91-10.64-3.88-14.96,1.33-2.88,4.57-4.83,6.94-5.62l.1-.03.05.1c2.51,4.92,5.05,10.61,3.54,15.69-.75,2.48-2.39,4.38-4.73,5.5l-.14.07ZM108.98,265.05s0,.07,0,.12c-.17,1.08-.3,2.41-.38,3.72-.13,2.07-.17,5.26.34,8.66.13.84.27,1.61.43,2.34,2.2-1.09,3.75-2.92,4.46-5.28,1.47-4.96-1.01-10.55-3.48-15.41-2.32.8-5.42,2.68-6.69,5.45-1.94,4.15-.53,9.77,3.59,14.41-.05-.6-.08-1.23-.09-1.91h0c-.07-3.34.37-6.45.75-8.47.33-1.71.66-2.96.83-3.56l-.3-.34.49.2s.06.04.07.07Z"/>
              </g>
            </g>
            <g>
              <g>
                <path class="cls-1" d="M87.1,265.48c-3.14.17-6.4-.07-8.87-.39-2.47-.32-4.15-.7-4.15-.7,0,0,1.63.19,4,.24,2.37.05,5.48-.06,8.39-.54.73-.12,1.45-.26,2.14-.43.02,0,.04-.01.06-.02-2.59-1.99-5.42-3.54-8.36-4.37-5.74-1.64-9.98.25-13.24,3.76,2.78,3.01,7.13,6,10.62,6.89,5.69,1.48,9.84-.73,11.59-4.64-.71.09-1.44.15-2.17.19Z"/>
                <path class="cls-1" d="M81.06,270.51c-1.08,0-2.22-.15-3.41-.46-3.31-.85-7.7-3.7-10.68-6.93l-.08-.08.08-.08c3.76-4.05,8.13-5.29,13.37-3.79,2.82.8,5.65,2.27,8.4,4.39l.21.16-.32.08c-.63.15-1.34.29-2.14.43-3.37.56-6.72.58-8.42.55-.61-.01-1.18-.04-1.69-.06.55.09,1.17.18,1.85.27,1.77.23,5.27.59,8.85.38.8-.05,1.51-.11,2.17-.19l.22-.03-.09.2c-1.49,3.33-4.54,5.17-8.33,5.17ZM67.24,263.04c2.95,3.16,7.24,5.94,10.48,6.77,5.11,1.33,9.44-.35,11.35-4.37-.6.07-1.24.12-1.96.16h0c-3.6.2-7.12-.16-8.89-.39-2.04-.26-3.56-.57-4.12-.69h-.03s.02-.12.02-.12l-.1-.09s.02-.02.03-.03c.02-.01.05-.02.07-.02.02,0,.03,0,.05,0,.54.06,2.01.19,3.95.23,1.69.04,5.02.02,8.37-.54.72-.12,1.36-.25,1.93-.38-2.66-2.01-5.39-3.42-8.11-4.19-5.1-1.46-9.37-.27-13.04,3.64Z"/>
              </g>
              <g>
                <path class="cls-1" d="M89.57,260.62c.59-2.99,1.56-5.74,2.39-7.73.83-1.99,1.49-3.23,1.49-3.23,0,0-.52,1.34-1.11,3.47-.59,2.12-1.22,5.05-1.44,8.14-.05.77-.09,1.55-.09,2.33,0,.02,0,.05,0,.07,2.34-.64,4.21-2.1,5.4-4.26,2.32-4.26,1.34-9.64-.17-15.13-2.65.38-5.82,1.79-7.45,4.04-2.66,3.64-2.43,9.29.63,14.44.09-.72.21-1.43.35-2.13Z"/>
                <path class="cls-1" d="M90.69,263.83v-.23c0-.73.03-1.5.09-2.34.23-3.26.91-6.24,1.44-8.16.14-.52.3-1.04.45-1.54-.19.41-.39.87-.6,1.38-.75,1.81-1.77,4.61-2.38,7.71h0c-.15.77-.26,1.46-.35,2.13l-.05.36-.19-.31c-3.07-5.18-3.31-10.9-.62-14.58,1.79-2.47,5.18-3.75,7.54-4.09l.11-.02.03.11c1.48,5.34,2.52,10.89.16,15.22-1.2,2.18-3.09,3.67-5.48,4.32l-.16.04ZM93.57,249.7s-.01.03-.02.05c-.37.98-.75,2.19-1.09,3.41-.53,1.91-1.2,4.87-1.43,8.11-.05.8-.08,1.53-.09,2.23,2.25-.65,4.03-2.09,5.17-4.16,2.3-4.23,1.29-9.67-.15-14.93-2.3.36-5.54,1.6-7.26,3.97-2.58,3.52-2.4,8.98.45,13.99.08-.56.18-1.14.3-1.78h0c.61-3.12,1.64-5.94,2.39-7.76.65-1.57,1.21-2.68,1.48-3.2l.02-.03.11.05.12-.05s.01.03.01.05c0,.02,0,.03,0,.04Z"/>
              </g>
            </g>
            <g>
              <g>
                <path class="cls-1" d="M72.6,245.56c-2.95-.36-5.94-1.13-8.18-1.83-2.24-.71-3.74-1.33-3.74-1.33,0,0,1.48.44,3.68.88,2.2.44,5.11.85,7.92.89.7,0,1.39,0,2.07-.04.02,0,.04,0,.06,0-2.02-2.28-4.37-4.2-6.96-5.45-5.05-2.47-9.37-1.41-13.06,1.32,2.04,3.25,5.53,6.73,8.59,8.13,5,2.31,9.28.96,11.66-2.37-.68-.04-1.37-.11-2.06-.19Z"/>
                <path class="cls-1" d="M67.82,249.39c-1.55,0-3.21-.38-4.88-1.15-2.9-1.33-6.46-4.69-8.65-8.18l-.06-.1.09-.07c4.21-3.11,8.64-3.56,13.19-1.33,2.49,1.21,4.85,3.06,7,5.48l.17.2-.32.02c-.65.04-1.33.05-2.08.04-3.23-.04-6.36-.58-7.94-.89-.53-.11-1.01-.21-1.45-.31.47.16.99.34,1.56.52,1.6.51,4.8,1.42,8.15,1.83.75.09,1.42.15,2.05.19h.23s-.13.2-.13.2c-1.68,2.35-4.14,3.57-6.94,3.57ZM54.56,240.02c2.17,3.41,5.64,6.69,8.48,7.99,4.48,2.07,8.82,1.24,11.38-2.15-.57-.04-1.17-.1-1.84-.18h0c-3.38-.42-6.59-1.33-8.2-1.84-1.85-.58-3.21-1.12-3.71-1.32h-.03s.04-.12.04-.12l-.08-.1.05-.04h0s0,0,0,0l.07.03c.38.11,1.75.49,3.66.87,1.57.31,4.69.85,7.89.89.67,0,1.28,0,1.86-.03-2.08-2.31-4.35-4.06-6.75-5.23-4.48-2.2-8.68-1.79-12.83,1.24Z"/>
              </g>
              <g>
                <path class="cls-1" d="M75.83,241.46c1.12-2.68,2.54-5.08,3.68-6.8,1.14-1.72,1.99-2.76,1.99-2.76,0,0-.74,1.16-1.68,3.05-.94,1.88-2.08,4.5-2.88,7.34-.2.71-.38,1.43-.53,2.15,0,.02,0,.04-.01.07,2.3-.2,4.32-1.24,5.85-3.05,2.98-3.57,3.1-8.76,2.68-14.15-2.55-.09-5.77.7-7.71,2.53-3.15,2.95-3.97,8.26-2.12,13.56.22-.65.47-1.3.73-1.93Z"/>
                <path class="cls-1" d="M76.25,244.64l.05-.23c.14-.68.32-1.4.53-2.16.84-3,2.04-5.66,2.89-7.36.21-.42.43-.84.65-1.25-.23.33-.48.69-.75,1.09-1.03,1.56-2.51,4-3.67,6.78h0c-.29.69-.53,1.32-.73,1.92l-.12.34-.12-.34c-1.87-5.34-1.02-10.72,2.15-13.69,2.13-2.02,5.53-2.63,7.8-2.56h.11s0,.12,0,.12c.41,5.22.37,10.56-2.7,14.24-1.53,1.82-3.58,2.89-5.93,3.09h-.17ZM81.61,231.98s-.01.02-.02.03c-.52.85-1.11,1.92-1.65,3-.85,1.69-2.04,4.34-2.87,7.32-.2.71-.37,1.4-.51,2.04,2.21-.23,4.14-1.26,5.6-2.99,2.99-3.59,3.05-8.82,2.66-13.95-2.22-.06-5.47.57-7.51,2.5-3.03,2.84-3.89,7.94-2.2,13.08.18-.5.38-1.02.62-1.59h0c1.17-2.8,2.65-5.25,3.7-6.82.92-1.39,1.67-2.36,1.96-2.73l-.05-.33.28.28s.04.05.04.08v.04s-.03.04-.03.04Z"/>
              </g>
            </g>
            <g>
              <g>
                <path class="cls-1" d="M62.36,223.61c-2.69-.84-5.34-2.05-7.31-3.08-1.97-1.03-3.26-1.86-3.26-1.86,0,0,1.31.66,3.29,1.43,1.98.77,4.62,1.65,7.24,2.16.65.12,1.3.23,1.94.31.02,0,.04,0,.06,0-1.47-2.46-3.33-4.64-5.52-6.24-4.29-3.15-8.52-2.86-12.46-.93,1.34,3.35,3.97,7.16,6.58,8.97,4.25,2.98,8.49,2.46,11.33-.24-.62-.15-1.26-.33-1.89-.53Z"/>
                <path class="cls-1" d="M58.73,226.5c-1.93,0-3.96-.67-5.89-2.03-2.46-1.72-5.19-5.43-6.62-9.03l-.04-.11.1-.05c4.5-2.2,8.73-1.88,12.59.95,2.12,1.55,3.99,3.66,5.56,6.28l.13.21-.31-.03c-.59-.07-1.23-.18-1.95-.31-3-.58-5.84-1.6-7.26-2.16-.43-.17-.83-.33-1.2-.49.38.21.81.44,1.27.68,1.41.74,4.23,2.12,7.29,3.07.69.21,1.31.38,1.88.52l.22.05-.17.16c-1.6,1.52-3.54,2.28-5.6,2.28ZM46.49,215.46c1.43,3.53,4.09,7.13,6.49,8.81,3.81,2.67,8,2.63,11-.07-.51-.13-1.06-.29-1.67-.47h0c-3.08-.96-5.91-2.34-7.33-3.09-1.59-.83-2.76-1.54-3.21-1.83l-.74.31.73-.59.1.05c.43.21,1.62.78,3.25,1.41,1.42.55,4.23,1.57,7.22,2.15.64.12,1.2.21,1.73.29-1.52-2.49-3.32-4.5-5.36-5.99-3.8-2.79-7.8-3.1-12.23-.97Z"/>
              </g>
              <g>
                <path class="cls-1" d="M66.13,220.34c1.54-2.31,3.3-4.31,4.67-5.72,1.37-1.41,2.36-2.24,2.36-2.25,0,0-.89.97-2.12,2.57-1.22,1.6-2.76,3.85-4.02,6.35-.31.63-.61,1.27-.89,1.91,0,.02-.02.04-.02.06,2.18.21,4.27-.41,6.02-1.84,3.44-2.82,4.49-7.64,5.04-12.78-2.37-.52-5.53-.32-7.67,1.07-3.47,2.24-5.17,7.05-4.41,12.29.33-.57.68-1.13,1.04-1.67Z"/>
                <path class="cls-1" d="M66.92,223.43c-.27,0-.55-.01-.83-.04l-.17-.02.08-.19c.27-.63.56-1.26.9-1.95,1.34-2.65,2.93-4.93,4.03-6.38.27-.35.53-.68.76-.97-.25.25-.53.52-.82.82-1.25,1.28-3.07,3.31-4.66,5.7-.4.6-.73,1.14-1.03,1.66l-.18.31-.05-.36c-.77-5.3.98-10.17,4.46-12.41,2.36-1.53,5.65-1.54,7.76-1.09l.11.02v.11c-.51,4.71-1.5,9.92-5.09,12.86-1.55,1.26-3.36,1.91-5.29,1.91ZM66.29,223.16c2.11.17,4.09-.47,5.76-1.83,3.49-2.86,4.48-7.95,4.98-12.58-2.06-.42-5.21-.39-7.46,1.08-3.32,2.14-5.03,6.74-4.4,11.81.25-.43.54-.88.86-1.36h0c1.6-2.41,3.43-4.45,4.69-5.74,1.13-1.16,2.01-1.95,2.34-2.23,0,0,0,0,0,.01l.1.06h.13s0,0,0,0v.06s-.04.04-.04.04c0,0-.01.01-.02.02-.3.33-1.09,1.23-2.09,2.53-1.1,1.44-2.68,3.7-4.01,6.33-.32.64-.6,1.24-.84,1.8Z"/>
              </g>
            </g>
            <g>
              <g>
                <path class="cls-1" d="M56.45,200.33c-2.36-1.24-4.63-2.81-6.29-4.1-1.66-1.29-2.72-2.27-2.72-2.27,0,0,1.11.83,2.83,1.88,1.71,1.05,4.04,2.31,6.39,3.23.59.23,1.18.44,1.76.62.02,0,.04.01.05.02-.94-2.54-2.3-4.89-4.08-6.75-3.47-3.65-7.48-4.09-11.5-2.95.68,3.33,2.48,7.31,4.59,9.43,3.44,3.48,7.5,3.72,10.63,1.7-.56-.25-1.12-.52-1.67-.81Z"/>
                <path class="cls-1" d="M53.94,202.53c-2.27,0-4.57-1.02-6.54-3.01-2-2-3.9-5.91-4.63-9.5l-.02-.11.11-.03c4.59-1.3,8.51-.3,11.62,2.98,1.72,1.8,3.1,4.09,4.1,6.79l.09.24-.3-.09c-.54-.17-1.12-.38-1.77-.62-2.71-1.05-5.18-2.48-6.41-3.24-.34-.21-.65-.41-.94-.59.3.24.62.5.98.78,1.19.92,3.59,2.69,6.27,4.09.6.31,1.14.58,1.66.81l.21.09-.19.13c-1.34.86-2.79,1.29-4.25,1.29ZM43.04,190.09c.74,3.51,2.59,7.3,4.54,9.26,3.09,3.12,7.01,3.8,10.28,1.81-.46-.21-.94-.45-1.46-.72h0c-2.7-1.41-5.11-3.18-6.31-4.11-1.3-1.01-2.25-1.84-2.7-2.25l-.03-.03.08-.09-.03-.13h.06s0-.01,0-.01h0s.05.05.05.05c.37.27,1.37.99,2.8,1.86,1.23.75,3.68,2.18,6.37,3.22.56.22,1.08.4,1.56.56-.98-2.57-2.31-4.75-3.96-6.47-3.07-3.23-6.75-4.19-11.26-2.95Z"/>
              </g>
              <g>
                <path class="cls-1" d="M60.55,197.93c1.84-1.89,3.84-3.46,5.37-4.55,1.53-1.09,2.59-1.7,2.59-1.7,0,0-1,.75-2.42,2.04-1.42,1.29-3.25,3.13-4.87,5.25-.4.53-.8,1.07-1.17,1.63-.01.02-.02.03-.03.05,2,.57,4.06.35,5.96-.68,3.71-2.04,5.55-6.37,6.94-11.11-2.13-.89-5.12-1.23-7.36-.29-3.63,1.51-6.04,5.72-6.26,10.73.41-.48.83-.93,1.26-1.38Z"/>
                <path class="cls-1" d="M62.18,201.08c-.73,0-1.47-.1-2.2-.31l-.17-.05.13-.19c.35-.52.73-1.05,1.17-1.64,1.72-2.24,3.6-4.1,4.89-5.27.27-.24.53-.48.8-.71-.27.18-.54.37-.81.56-1.39.99-3.44,2.58-5.35,4.53-.47.48-.88.93-1.26,1.37l-.24.27.02-.36c.22-5.08,2.71-9.33,6.34-10.84,2.48-1.04,5.56-.5,7.46.29l.1.04-.03.11c-1.27,4.33-3.09,9.04-7,11.18-1.23.67-2.53,1-3.85,1ZM60.22,200.58c1.94.5,3.9.26,5.7-.72,3.79-2.08,5.59-6.68,6.84-10.92-1.85-.75-4.8-1.24-7.16-.25-3.46,1.44-5.85,5.44-6.16,10.26.31-.36.65-.72,1.03-1.11h0c1.92-1.97,3.99-3.57,5.38-4.56.88-.63,1.79-1.23,2.56-1.69l.03-.02.07.11.11-.06h0s0,0,0,0h0s.02.08,0,.11c-.02.03-.05.05-.07.07-.72.56-1.57,1.27-2.38,2.01-1.27,1.16-3.15,3-4.86,5.23-.41.54-.77,1.04-1.1,1.53Z"/>
              </g>
            </g>
            <g>
              <g>
                <path class="cls-1" d="M54.95,176.44c-1.99-1.56-3.83-3.41-5.16-4.89-1.33-1.48-2.15-2.58-2.15-2.57,0,0,.89.96,2.31,2.23,1.42,1.27,3.36,2.84,5.4,4.09.51.31,1.02.61,1.53.88.02,0,.03.02.05.02-.43-2.53-1.29-4.95-2.63-6.99-2.61-3.99-6.28-5.06-10.22-4.68.06,3.21,1.05,7.21,2.66,9.54,2.61,3.82,6.34,4.75,9.62,3.4-.48-.33-.95-.68-1.42-1.04Z"/>
                <path class="cls-1" d="M53.51,178.18c-2.6,0-5.08-1.41-6.87-4.03-1.51-2.2-2.61-6.15-2.68-9.61v-.12s.11-.01.11-.01c4.59-.45,7.97,1.1,10.34,4.73,1.3,1.97,2.19,4.34,2.65,7.04l.04.25-.27-.14c-.47-.25-.98-.54-1.54-.88-2.33-1.44-4.4-3.19-5.42-4.11-.25-.22-.48-.43-.69-.63.21.25.45.52.7.8.95,1.06,2.89,3.11,5.14,4.87h0c.51.4.97.74,1.41,1.04l.19.13-.21.09c-.96.4-1.94.59-2.9.59ZM44.21,164.65c.09,3.38,1.16,7.22,2.63,9.36,2.33,3.42,5.86,4.72,9.25,3.44-.39-.27-.79-.57-1.23-.91h0c-2.27-1.78-4.21-3.84-5.17-4.9-1.1-1.23-1.86-2.2-2.14-2.56l.07-.08v-.14s.06-.01.06-.01l.06.07c.3.31,1.12,1.16,2.28,2.2,1.02.91,3.07,2.65,5.38,4.08.49.3.93.55,1.35.78-.47-2.56-1.33-4.81-2.57-6.69-2.3-3.52-5.57-5.03-9.99-4.63Z"/>
              </g>
              <g>
                <path class="cls-1" d="M59.19,174.9c2.05-1.45,4.18-2.58,5.8-3.34,1.62-.76,2.72-1.16,2.72-1.16,0,0-1.07.54-2.62,1.5-1.55.97-3.57,2.38-5.46,4.08-.47.43-.93.87-1.38,1.32-.01.01-.03.03-.04.04,1.77.87,3.73,1.02,5.68.39,3.82-1.26,6.29-5.01,8.4-9.24-1.84-1.19-4.57-2.02-6.82-1.51-3.65.81-6.63,4.34-7.7,8.98.46-.37.94-.73,1.42-1.07Z"/>
                <path class="cls-1" d="M61.5,178.26c-1.14,0-2.27-.26-3.33-.79l-.16-.08.16-.16c.42-.43.88-.88,1.38-1.33,1.99-1.8,4.08-3.22,5.48-4.09.26-.16.52-.32.78-.48-.24.11-.49.22-.76.35-1.47.69-3.66,1.83-5.78,3.33-.53.38-.99.73-1.41,1.07l-.28.23.08-.35c1.09-4.7,4.15-8.26,7.8-9.07,2.49-.57,5.28.47,6.91,1.52l.09.06-.05.1c-1.92,3.85-4.44,7.96-8.48,9.3-.81.26-1.63.4-2.43.4ZM58.43,177.32c1.72.8,3.59.9,5.43.31,3.92-1.29,6.39-5.3,8.28-9.07-1.6-1.01-4.26-1.97-6.63-1.43-3.46.77-6.38,4.1-7.52,8.53.35-.27.72-.55,1.14-.85h0c2.13-1.51,4.34-2.65,5.82-3.35,1.33-.62,2.33-1.01,2.7-1.15h0s0,0,0,0l.06.1.12-.05.06.11h-.01s0,.02,0,.02l-.14.06c-.77.4-1.68.93-2.57,1.48-1.39.87-3.47,2.28-5.44,4.07-.46.42-.9.83-1.29,1.23Z"/>
              </g>
            </g>
            <g>
              <g>
                <path class="cls-1" d="M57.57,154.32c-1.6-1.77-3.01-3.79-4-5.38-.99-1.59-1.58-2.74-1.58-2.74,0,0,.68,1.03,1.79,2.44,1.11,1.41,2.67,3.18,4.36,4.68.42.37.85.73,1.28,1.07.01.01.03.02.04.03.02-2.44-.38-4.84-1.3-6.95-1.77-4.14-5.03-5.71-8.77-5.96-.47,3.01-.19,6.88.91,9.31,1.8,3.97,5.13,5.44,8.41,4.7-.39-.38-.77-.79-1.15-1.2Z"/>
                <path class="cls-1" d="M57.1,155.82c-2.91,0-5.47-1.8-6.91-4.96-1.05-2.29-1.43-6.15-.92-9.38l.02-.11h.11c4.36.3,7.26,2.27,8.88,6.04.87,2.02,1.33,4.44,1.31,7v.26s-.24-.19-.24-.19c-.41-.32-.83-.67-1.29-1.07-1.94-1.72-3.57-3.68-4.38-4.69-.17-.21-.32-.42-.47-.61.14.24.3.5.47.76.71,1.14,2.18,3.36,3.99,5.36.41.45.78.84,1.14,1.19l.16.16-.22.05c-.56.12-1.1.19-1.64.19ZM49.5,141.64c-.47,3.17-.09,6.9.92,9.13,1.61,3.55,4.67,5.33,8.04,4.68-.31-.31-.64-.66-.99-1.04h0c-1.82-2.02-3.29-4.25-4.01-5.4-.81-1.31-1.37-2.34-1.57-2.72l.08-.08v-.14s.07-.01.07-.01l.06.09c.23.34.85,1.25,1.77,2.41.8,1.01,2.42,2.96,4.34,4.66.4.35.76.66,1.11.93-.01-2.43-.46-4.72-1.29-6.65-1.56-3.64-4.36-5.56-8.55-5.88Z"/>
              </g>
              <g>
                <path class="cls-1" d="M61.78,153.56c2.15-1.03,4.33-1.76,5.96-2.22,1.63-.46,2.72-.66,2.72-.66,0,0-1.08.34-2.69,1.01-1.6.67-3.73,1.67-5.76,2.96-.51.32-1.01.66-1.5,1.02-.02.01-.03.02-.04.03,1.5,1.1,3.3,1.55,5.22,1.27,3.77-.57,6.7-3.71,9.37-7.37-1.52-1.41-3.93-2.61-6.11-2.47-3.54.2-6.9,3.05-8.67,7.22.49-.28,1-.53,1.5-.78Z"/>
                <path class="cls-1" d="M64.57,157.17c-1.51,0-2.94-.47-4.19-1.37l-.14-.1.19-.13c.46-.33.95-.66,1.51-1.02,2.15-1.36,4.33-2.37,5.78-2.97.25-.1.49-.2.71-.29-.21.06-.43.12-.66.18-1.48.42-3.71,1.14-5.94,2.21h0c-.55.27-1.04.52-1.49.77l-.32.18.14-.34c1.8-4.23,5.24-7.09,8.77-7.29,2.41-.14,4.86,1.26,6.2,2.51l.08.08-.07.09c-2.43,3.33-5.45,6.81-9.45,7.42-.38.06-.76.08-1.13.08ZM60.68,155.69c1.47,1.02,3.19,1.41,4.99,1.14,3.87-.59,6.83-3.97,9.22-7.23-1.42-1.28-3.78-2.5-5.94-2.37-3.34.19-6.61,2.85-8.41,6.8.36-.2.75-.39,1.18-.6h0c2.24-1.08,4.49-1.81,5.98-2.23,1.36-.38,2.35-.59,2.71-.66l.05.12.11.06-.03.06-.08.02c-.45.15-1.39.47-2.65.99-1.44.6-3.61,1.6-5.75,2.95-.51.33-.97.64-1.4.94Z"/>
              </g>
            </g>
            <g>
              <g>
                <path class="cls-1" d="M64.42,132.05c-1.16-1.92-2.12-4.03-2.75-5.68-.64-1.65-.98-2.81-.98-2.81,0,0,.45,1.07,1.23,2.57.78,1.49,1.91,3.4,3.21,5.08.33.42.66.82,1,1.21.01.01.02.02.03.03.45-2.28.51-4.59.04-6.71-.91-4.16-3.66-6.14-7.09-6.98-.97,2.73-1.4,6.38-.8,8.83.97,3.99,3.79,5.91,6.97,5.77-.29-.42-.58-.86-.85-1.31Z"/>
                <path class="cls-1" d="M64.94,133.49c-3.3,0-5.87-2.22-6.75-5.87-.56-2.31-.23-5.97.81-8.9l.04-.11.11.03c4.01.98,6.36,3.29,7.18,7.07.45,2.03.44,4.37-.04,6.76l-.05.24-.2-.22c-.32-.36-.65-.76-1-1.21-1.49-1.92-2.66-4.02-3.23-5.1-.1-.19-.19-.37-.28-.55.08.22.17.45.26.69.46,1.18,1.43,3.49,2.74,5.66.31.5.58.93.85,1.3l.13.19h-.23c-.11.02-.23.02-.34.02ZM59.19,118.91c-.99,2.87-1.31,6.41-.76,8.65.85,3.53,3.33,5.68,6.51,5.68.03,0,.07,0,.1,0-.23-.33-.46-.7-.72-1.12h0c-1.33-2.18-2.3-4.51-2.76-5.7-.52-1.33-.84-2.36-.97-2.77l-.56-.24.75.02.04.09c.12.27.54,1.26,1.22,2.54.56,1.07,1.72,3.16,3.2,5.06.3.39.58.73.86,1.04.42-2.27.42-4.48,0-6.41-.8-3.65-3.05-5.89-6.89-6.86Z"/>
              </g>
              <g>
                <path class="cls-1" d="M68.47,132.02c2.18-.62,4.34-.94,5.94-1.11,1.6-.17,2.65-.19,2.65-.19,0,0-1.07.15-2.68.51-1.61.37-3.76.96-5.89,1.84-.53.22-1.06.45-1.58.7-.02,0-.03.02-.05.02,1.2,1.27,2.79,2,4.62,2.04,3.61.08,6.89-2.39,10.05-5.41-1.16-1.57-3.18-3.08-5.24-3.3-3.33-.37-6.96,1.76-9.36,5.37.51-.18,1.02-.34,1.53-.48Z"/>
                <path class="cls-1" d="M71.66,135.98c-.06,0-.12,0-.17,0-1.84-.05-3.47-.77-4.71-2.08l-.11-.12.2-.1c.48-.23,1-.46,1.58-.71,2.24-.93,4.45-1.52,5.91-1.85.21-.05.42-.09.61-.13-.17.02-.35.03-.54.05-1.46.15-3.66.47-5.92,1.11h0c-.57.16-1.06.32-1.52.48l-.35.12.21-.31c2.43-3.67,6.14-5.8,9.47-5.42,2.3.25,4.3,1.96,5.33,3.35l.06.09-.08.08c-2.82,2.7-6.19,5.45-9.96,5.45ZM67.07,133.85c1.18,1.19,2.7,1.84,4.42,1.88.06,0,.11,0,.17,0,3.64,0,6.95-2.66,9.71-5.31-1.09-1.43-3.06-2.94-5.09-3.16-3.14-.36-6.65,1.6-9.03,5,.36-.12.75-.24,1.18-.36h0c2.27-.64,4.49-.96,5.96-1.12,1.33-.14,2.29-.18,2.64-.19l.02.12h.13v.12h-.13c-.35.06-1.32.21-2.65.51-1.45.33-3.65.92-5.87,1.84-.54.22-1.02.44-1.46.65Z"/>
              </g>
            </g>
            <g>
              <g>
                <path class="cls-1" d="M76.05,110.37c-.7-1.99-1.17-4.12-1.44-5.76-.27-1.64-.36-2.79-.36-2.79,0,0,.2,1.08.63,2.6.43,1.53,1.1,3.5,1.98,5.28.22.44.45.88.69,1.3.89-2.01,1.41-4.16,1.39-6.23-.02-4.04-2.19-6.34-5.22-7.69-1.43,2.39-2.55,5.72-2.48,8.1.11,3.88,2.35,6.16,5.32,6.56-.19-.44-.36-.9-.53-1.37Z"/>
                <path class="cls-1" d="M76.78,111.89l-.22-.03c-3.24-.44-5.33-3-5.43-6.68-.07-2.24.96-5.6,2.5-8.17l.06-.09.1.04c3.54,1.57,5.27,4.13,5.29,7.8.02,2.01-.47,4.18-1.4,6.28l-.1.22-.12-.21c-.23-.39-.45-.82-.69-1.3-1-2.04-1.68-4.2-1.99-5.3-.05-.16-.09-.31-.13-.46.03.19.06.39.09.59.19,1.18.64,3.5,1.43,5.74.18.51.35.96.53,1.36l.09.2ZM73.78,97.24c-1.49,2.51-2.47,5.76-2.4,7.94.1,3.47,2.01,5.9,5,6.4-.15-.35-.29-.74-.45-1.17h0c-.8-2.26-1.25-4.59-1.44-5.79-.21-1.3-.31-2.3-.35-2.72l-1.05-.38,1.27.17.02.1c.05.27.26,1.26.63,2.58.31,1.1.98,3.23,1.97,5.26.19.39.38.74.56,1.07.85-2,1.29-4.05,1.28-5.95-.02-3.53-1.67-6-5.04-7.53Z"/>
              </g>
              <g>
                <path class="cls-1" d="M79.81,111.03c2.15-.21,4.22-.16,5.74-.06,1.52.11,2.51.26,2.51.26,0,0-1.03-.04-2.6.04-1.57.08-3.69.28-5.84.75-.54.12-1.07.25-1.6.39-.02,0-.03,0-.05.01.86,1.39,2.19,2.34,3.88,2.69,3.33.68,6.88-1.09,10.43-3.43-.76-1.67-2.35-3.41-4.22-3.95-3.03-.89-6.84.52-9.77,3.48.51-.08,1.01-.14,1.52-.19Z"/>
                <path class="cls-1" d="M83.33,115.39c-.5,0-1.01-.05-1.51-.15-1.7-.35-3.07-1.3-3.97-2.75l-.09-.14.2-.06c.49-.14,1.02-.27,1.61-.4,2.26-.49,4.44-.68,5.86-.75.17,0,.34-.02.5-.02-.13-.01-.27-.02-.41-.03-1.38-.09-3.5-.16-5.72.06h0c-.56.06-1.05.12-1.51.19l-.38.06.27-.27c2.99-3.02,6.87-4.4,9.9-3.52,2.1.61,3.63,2.54,4.3,4.02l.04.1-.09.06c-2.76,1.82-5.93,3.59-9.02,3.6ZM78.16,112.5c.86,1.3,2.14,2.16,3.71,2.49,3.43.7,7.1-1.29,10.25-3.35-.72-1.52-2.25-3.25-4.1-3.78-2.85-.83-6.49.41-9.38,3.18.35-.05.73-.1,1.14-.14h0c2.23-.22,4.36-.15,5.76-.06,1.26.09,2.17.21,2.5.26v.12s.09.1.09.1l-.05.04h-.06c-.34-.02-1.27-.03-2.57.03-1.42.07-3.58.26-5.82.74-.54.12-1.03.24-1.48.36Z"/>
              </g>
            </g>
            <g>
              <g>
                <path class="cls-1" d="M90.39,92.79c-.28-1.96-.31-4.03-.25-5.6.06-1.58.19-2.66.19-2.66,0,0-.01,1.04.1,2.53.12,1.49.37,3.43.85,5.23.12.45.25.89.4,1.31,1.22-1.75,2.11-3.69,2.48-5.63.75-3.79-.85-6.26-3.43-7.95-1.79,2.02-3.46,4.97-3.84,7.21-.62,3.64,1.03,6.1,3.73,6.92-.09-.44-.17-.9-.23-1.36Z"/>
                <path class="cls-1" d="M90.79,94.33l-.2-.06c-2.95-.89-4.41-3.6-3.82-7.06.36-2.11,1.95-5.1,3.87-7.27l.07-.08.09.06c3.03,1.99,4.17,4.63,3.49,8.08-.37,1.88-1.23,3.85-2.5,5.68l-.14.2-.08-.23c-.13-.38-.26-.8-.4-1.32-.55-2.06-.77-4.18-.86-5.26,0-.12-.02-.23-.03-.35,0,.15-.01.31-.02.47-.04,1.13-.06,3.37.25,5.58.07.51.15.95.23,1.35l.04.21ZM90.76,80.18c-1.86,2.13-3.39,5.02-3.74,7.06-.56,3.25.76,5.8,3.44,6.72-.07-.35-.13-.73-.19-1.15h0c-.32-2.24-.29-4.48-.25-5.63.05-1.24.14-2.19.19-2.64h.12s.08-.12.08-.12l.06.05v.08c0,.43,0,1.32.1,2.49.08,1.07.3,3.17.85,5.21.11.41.21.76.31,1.07,1.17-1.74,1.98-3.6,2.32-5.38.65-3.3-.42-5.84-3.29-7.77Z"/>
              </g>
              <g>
                <path class="cls-1" d="M93.78,93.96c2.05.12,3.98.46,5.38.78,1.41.32,2.3.61,2.3.6,0,0-.96-.18-2.45-.33-1.49-.15-3.51-.27-5.61-.15-.52.03-1.05.07-1.57.13-.02,0-.03,0-.05,0,.54,1.43,1.6,2.51,3.11,3.09,2.98,1.13,6.65-.01,10.44-1.72-.39-1.67-1.55-3.54-3.2-4.31-2.68-1.27-6.52-.49-9.82,1.85.49,0,.97.02,1.46.04Z"/>
                <path class="cls-1" d="M97.54,98.67c-.93,0-1.83-.14-2.68-.46-1.52-.58-2.63-1.68-3.19-3.17l-.06-.15.16-.02.05.11h0s-.01-.11-.01-.11c.46-.05.96-.1,1.58-.13,2.21-.12,4.28.01,5.63.15.13.01.26.03.39.04-.09-.02-.19-.04-.29-.07-1.28-.29-3.25-.66-5.36-.78-.53-.03-1.02-.03-1.45-.04h-.39s.32-.23.32-.23c3.37-2.4,7.28-3.13,9.95-1.86,1.86.87,2.93,2.91,3.27,4.4l.02.1-.09.04c-2.51,1.12-5.29,2.18-7.86,2.18ZM91.97,95.1c.55,1.34,1.58,2.33,2.98,2.87,3.08,1.17,6.91-.18,10.25-1.67-.38-1.52-1.48-3.36-3.11-4.13-2.5-1.18-6.15-.55-9.37,1.62.33,0,.68.02,1.07.04h0c2.13.12,4.11.49,5.4.78,1.22.28,2.07.53,2.3.6l-.03.12.09.09-.05.05-.08-.02c-.32-.06-1.2-.2-2.41-.33-1.34-.14-3.4-.28-5.59-.15-.56.03-1.03.07-1.45.12Z"/>
              </g>
            </g>
          </g>
          <g>
            <path class="cls-1" d="M100.25,85.31c1.99-1.68,4.08-3.09,5.67-4.05,1.59-.96,2.68-1.48,2.68-1.48,0,0-1.08.62-2.65,1.69-1.56,1.07-3.6,2.64-5.49,4.43-.47.45-.94.9-1.38,1.37-.01.01-.03.03-.04.04,1.37-.02,2.99-.51,4.79-1.47,3.52-1.88,6.54-4.97,9.42-8.32-1.48-.53-3.95-.48-6.13.5-3.55,1.57-6.66,5.01-8.25,8.52.45-.42.91-.82,1.38-1.22Z"/>
            <path class="cls-1" d="M98.74,87.44l.25-.26c.41-.43.86-.87,1.39-1.37,1.8-1.7,3.58-3.07,4.77-3.93-1.22.77-3,1.99-4.82,3.52h0c-.5.42-.95.82-1.38,1.22l-.45.42.25-.56c1.71-3.79,4.9-7.07,8.31-8.58,2.33-1.05,4.81-1.01,6.22-.5l.17.06-.12.14c-2.59,3.02-5.74,6.37-9.45,8.35-1.8.96-3.44,1.47-4.85,1.49h-.3ZM108.67,79.88s-.03.02-.06.04c-1.01.6-1.97,1.23-2.59,1.66-1.1.76-3.27,2.34-5.47,4.41-.45.42-.84.81-1.2,1.18,1.3-.08,2.79-.57,4.42-1.44,3.62-1.93,6.71-5.19,9.26-8.15-1.36-.42-3.7-.42-5.86.55-3.14,1.39-6.19,4.44-7.91,7.88.29-.26.59-.52.92-.8,2.3-1.95,4.55-3.38,5.69-4.06.91-.55,1.83-1.05,2.64-1.46l.04-.02.06.11.13.03s-.01.03-.02.04c0,.01-.02.02-.03.03Z"/>
          </g>
        </g>
        <g>
          <path class="cls-1" d="M101.62,84.93c-73.93,62.41-51.44,184.9,46.95,214.28.62.18.97.83.78,1.44v.02c-.2.61-.85.95-1.46.77-100.04-30.87-120.76-154.89-46.27-216.51Z"/>
          <path class="cls-1" d="M148.23,301.61c-.12,0-.25-.02-.38-.06-12.16-3.75-23.51-9.01-33.75-15.62-9.77-6.31-18.56-13.89-26.15-22.52-14.48-16.48-24.41-36.7-28.73-58.47-4.28-21.59-2.91-43.88,3.98-64.47,7.24-21.64,20.5-40.88,38.34-55.64l.16.19c-35.14,29.66-50.48,74.4-41.05,119.66,9.48,45.49,42.36,80.78,87.95,94.4.33.1.6.32.77.63.16.3.19.65.09.97-.18.57-.69.93-1.24.93ZM78.31,110.78c-18.31,27.05-25.44,60.83-18.84,94.12,9.15,46.11,42.22,82.16,88.46,96.43.55.17,1.13-.14,1.29-.68.09-.28.06-.56-.07-.8-.13-.25-.35-.42-.62-.5-11.96-3.57-23.15-8.64-33.27-15.06-9.66-6.13-18.39-13.53-25.94-21.97-14.44-16.16-24.44-36.07-28.92-57.55-4.46-21.39-3.29-43.53,3.36-64.04,3.44-10.61,8.34-20.67,14.54-29.92Z"/>
        </g>
      </g>
      <g>
        <g>
          <g>
            <g>
              <g>
                <path class="cls-1" d="M232.52,296.33c3.26,1.39,6.85,2.4,9.63,3.01,2.78.61,4.74.85,4.74.86,0,0-1.82-.42-4.36-1.27-2.54-.85-5.79-2.15-8.65-3.78-.71-.41-1.41-.83-2.06-1.27-.02-.01-.04-.03-.06-.04,3.75-1.04,7.5-1.55,11.01-1.29,6.84.48,10.41,4.01,12.19,8.88-4.36,2.09-10.46,3.53-14.64,3.12-6.82-.66-10.15-4.56-10.03-9.24.71.36,1.46.71,2.22,1.04Z"/>
                <path class="cls-1" d="M241.85,304.74c-.54,0-1.05-.02-1.54-.07-6.39-.62-10.27-4.21-10.14-9.37v-.2s.18.09.18.09c.66.34,1.38.67,2.22,1.03h0c3.73,1.6,7.62,2.57,9.6,3,.89.2,1.7.35,2.4.48-.62-.18-1.32-.4-2.09-.66-1.82-.61-5.37-1.91-8.67-3.79-.83-.47-1.48-.88-2.07-1.27l-.25-.18.23-.08c3.99-1.11,7.7-1.54,11.05-1.3,6.23.44,10.26,3.37,12.3,8.96l.04.11-.1.05c-4.1,1.97-9.27,3.2-13.17,3.2ZM230.42,295.5c-.03,4.91,3.75,8.32,9.92,8.92,3.92.39,9.85-.87,14.47-3.06-2.02-5.42-5.96-8.26-12.04-8.69-3.24-.24-6.84.17-10.7,1.21.54.36,1.14.72,1.88,1.15,3.28,1.87,6.81,3.16,8.63,3.77,2.08.69,3.7,1.11,4.3,1.26.02,0,.04,0,.06.02.02,0,.04.02.06.04.01.01.02.03.02.05l-.12.04-.02.11h-.06c-1.41-.2-3.08-.5-4.69-.86-2-.44-5.91-1.41-9.65-3.01h0c-.77-.33-1.44-.64-2.05-.95Z"/>
              </g>
              <g>
                <path class="cls-1" d="M232.31,290.38c.85-3.3,1.15-6.5,1.24-8.86.08-2.36-.04-3.89-.04-3.89,0,0-.08,1.58-.48,3.99-.4,2.41-1.15,5.66-2.46,8.92-.33.81-.68,1.63-1.07,2.42-.01.02-.02.05-.04.07-2.17-1.56-3.43-3.8-3.61-6.48-.33-5.27,3.35-10.4,7.44-15.44,2.59,1.41,5.26,4.05,5.93,6.99,1.11,4.75-1.78,10.5-7.6,14.61.26-.77.49-1.55.69-2.33Z"/>
                <path class="cls-1" d="M229.52,293.2l-.12-.07c-2.21-1.59-3.48-3.86-3.66-6.57-.33-5.42,3.5-10.65,7.47-15.53l.07-.08.09.05c2.31,1.26,5.26,3.86,5.99,7.08,1.14,4.87-1.87,10.65-7.65,14.74l-.31.22.12-.36c.24-.7.46-1.46.69-2.32h0c.88-3.42,1.16-6.69,1.23-8.84.02-.72.03-1.37.03-1.93-.08.67-.18,1.36-.29,2.05-.36,2.18-1.08,5.5-2.46,8.94-.38.94-.72,1.71-1.08,2.43,0,.02-.02.04-.03.06l-.07.13ZM233.33,271.27c-3.91,4.82-7.67,9.97-7.35,15.27.17,2.58,1.36,4.75,3.44,6.3.34-.7.67-1.45,1.04-2.36,1.37-3.42,2.09-6.72,2.45-8.89.23-1.37.4-2.76.47-3.91,0-.03,0-.05,0-.07,0-.02.01-.05.03-.07.01-.01.03-.03.06-.03l.04.12h.12s0,.04,0,.04c.04.65.1,2.01.03,3.85-.08,2.16-.35,5.45-1.24,8.89h0c-.19.72-.38,1.37-.57,1.97,5.5-4.01,8.34-9.57,7.24-14.26-.7-3.09-3.53-5.61-5.77-6.86Z"/>
              </g>
            </g>
            <g>
              <g>
                <path class="cls-1" d="M255.34,282.64c3.24.77,6.71,1.12,9.36,1.24,2.66.12,4.49.03,4.49.04,0,0-1.74-.1-4.23-.48-2.49-.38-5.71-1.07-8.65-2.11-.73-.26-1.45-.54-2.14-.84-.02,0-.04-.02-.06-.03,3.16-1.58,6.47-2.66,9.72-2.98,6.34-.65,10.34,2.07,12.97,6.31-3.55,2.63-8.78,4.94-12.64,5.22-6.3.48-10.14-2.59-11.06-6.96.72.22,1.47.42,2.23.6Z"/>
                <path class="cls-1" d="M262.91,289.17c-5.24,0-9-2.65-9.93-7.11l-.04-.21.2.06c.67.2,1.4.4,2.23.6h0c3.7.88,7.44,1.15,9.34,1.24.79.04,1.51.05,2.14.06-.63-.08-1.27-.16-1.9-.26-1.78-.27-5.28-.91-8.67-2.12-.81-.29-1.51-.57-2.14-.84l-.31-.13.24-.12c3.37-1.68,6.65-2.68,9.76-2.99,5.78-.6,10.06,1.49,13.09,6.36l.06.1-.09.07c-3.81,2.82-9.03,4.98-12.71,5.25-.43.03-.85.05-1.26.05ZM253.28,282.22c1.06,4.54,5.2,7.09,10.88,6.65,3.6-.27,8.72-2.37,12.48-5.13-2.97-4.72-7.14-6.73-12.79-6.15-3.01.3-6.18,1.26-9.43,2.85.59.25,1.22.5,1.94.76,3.37,1.2,6.85,1.83,8.62,2.11,1.43.22,2.91.39,4.16.48.03,0,.05,0,.07,0,.02,0,.04,0,.06.02.01,0,.02.02.03.03l-.1.07v.12s-.05,0-.05,0c-.77.03-2.37.06-4.44-.04-1.91-.09-5.66-.36-9.38-1.24h0c-.75-.18-1.42-.36-2.04-.54Z"/>
              </g>
              <g>
                <path class="cls-1" d="M253.87,277.15c.07-3.21-.33-6.23-.75-8.44-.42-2.21-.84-3.61-.84-3.62,0,0,.25,1.48.39,3.79.14,2.3.14,5.45-.34,8.69-.12.81-.27,1.62-.45,2.43,0,.02-.01.05-.02.07-2.3-1.1-3.92-2.96-4.67-5.42-1.44-4.84.8-10.22,3.54-15.6,2.66.89,5.66,2.92,6.87,5.55,1.99,4.25.52,10.06-3.86,14.83.07-.76.11-1.52.13-2.28Z"/>
                <path class="cls-1" d="M251.96,280.23l-.14-.04c-2.35-1.12-3.98-3.02-4.73-5.5-1.51-5.09,1.04-10.77,3.54-15.69l.05-.1.1.03c2.37.79,5.62,2.74,6.94,5.62,2.02,4.32.5,10.2-3.88,14.96l-.25.27.04-.37c.06-.7.11-1.44.12-2.27h0c.07-3.31-.37-6.41-.75-8.42-.11-.56-.22-1.13-.35-1.67.06.59.11,1.2.15,1.81.13,2.09.17,5.29-.34,8.71-.13.88-.28,1.67-.45,2.44,0,.02,0,.04-.01.05l-.04.15ZM250.8,259.21c-2.47,4.86-4.95,10.45-3.48,15.41.71,2.36,2.25,4.18,4.46,5.28.16-.74.3-1.5.43-2.34.51-3.4.46-6.59.34-8.66-.08-1.31-.21-2.62-.38-3.72-.01-.07-.02-.1,0-.13.01-.03.03-.05.08-.07l.44-.15-.26.3c.29,1.03.59,2.29.83,3.56.38,2.02.82,5.13.75,8.47h0c-.02.69-.05,1.32-.09,1.91,4.12-4.64,5.53-10.26,3.59-14.41-1.28-2.77-4.38-4.65-6.69-5.45Z"/>
              </g>
            </g>
            <g>
              <g>
                <path class="cls-1" d="M274.04,265.48c3.14.17,6.4-.07,8.87-.39,2.47-.32,4.15-.7,4.15-.7,0,0-1.63.19-4,.24-2.37.05-5.48-.06-8.39-.54-.73-.12-1.45-.26-2.14-.43-.02,0-.04-.01-.06-.02,2.59-1.99,5.42-3.54,8.36-4.37,5.74-1.64,9.98.25,13.24,3.76-2.78,3.01-7.13,6-10.62,6.89-5.69,1.48-9.84-.73-11.59-4.64.71.09,1.44.15,2.17.19Z"/>
                <path class="cls-1" d="M280.07,270.51c-3.79,0-6.84-1.83-8.33-5.17l-.09-.2.22.03c.65.08,1.36.14,2.17.19h0c3.58.2,7.08-.15,8.85-.38.68-.09,1.31-.18,1.85-.27-.51.03-1.07.05-1.69.06-1.7.04-5.05.02-8.42-.55-.81-.14-1.51-.28-2.14-.43l-.29-.07.18-.17c2.75-2.11,5.58-3.59,8.41-4.39,5.24-1.5,9.61-.26,13.37,3.79l.08.08-.08.08c-2.98,3.23-7.37,6.08-10.68,6.93-1.18.31-2.33.46-3.41.46ZM272.07,265.44c1.91,4.02,6.23,5.7,11.35,4.37,3.24-.83,7.53-3.61,10.48-6.77-3.67-3.91-7.94-5.1-13.04-3.64-2.72.77-5.45,2.18-8.11,4.19.59.14,1.22.26,1.93.38,3.35.56,6.68.58,8.37.54,1.94-.04,3.41-.18,3.95-.23.02,0,.04,0,.06,0,.02,0,.03,0,.05,0,.01,0,.02.01.03.02l-.08.1.02.12h-.04c-.56.13-2.08.43-4.12.7-1.78.23-5.29.59-8.89.39h0c-.72-.04-1.36-.09-1.96-.16Z"/>
              </g>
              <g>
                <path class="cls-1" d="M271.56,260.62c-.59-2.99-1.56-5.74-2.39-7.73-.83-1.99-1.49-3.23-1.49-3.23,0,0,.52,1.34,1.11,3.47.59,2.12,1.22,5.05,1.44,8.14.05.77.09,1.55.09,2.33,0,.02,0,.05,0,.07-2.34-.64-4.21-2.1-5.4-4.26-2.32-4.26-1.34-9.64.17-15.13,2.65.38,5.82,1.79,7.45,4.04,2.66,3.64,2.43,9.29-.63,14.44-.09-.72-.21-1.43-.35-2.13Z"/>
                <path class="cls-1" d="M270.44,263.83l-.16-.04c-2.39-.65-4.28-2.14-5.48-4.32-2.36-4.33-1.32-9.88.16-15.22l.03-.11.11.02c2.36.34,5.75,1.62,7.54,4.09,2.69,3.68,2.45,9.4-.62,14.57l-.19.31-.05-.36c-.08-.66-.2-1.36-.35-2.13h0c-.61-3.09-1.63-5.9-2.38-7.71-.21-.51-.41-.97-.6-1.38.16.5.31,1.02.45,1.53.53,1.92,1.21,4.89,1.44,8.16.06.85.09,1.61.09,2.34v.23ZM265.17,244.42c-1.45,5.26-2.45,10.7-.15,14.93,1.14,2.07,2.92,3.5,5.17,4.16,0-.69-.03-1.42-.09-2.23-.23-3.25-.9-6.21-1.43-8.11-.33-1.21-.72-2.42-1.09-3.41,0-.02-.01-.04-.02-.05,0-.01,0-.03,0-.04,0-.02,0-.03.01-.05l.11.05.11-.05.02.03c.27.53.83,1.64,1.48,3.2.75,1.82,1.78,4.64,2.39,7.75h0c.12.64.22,1.22.3,1.78,2.85-5.01,3.03-10.46.45-13.98-1.72-2.37-4.96-3.62-7.26-3.97Z"/>
              </g>
            </g>
            <g>
              <g>
                <path class="cls-1" d="M288.54,245.56c2.95-.36,5.94-1.13,8.18-1.83,2.24-.71,3.74-1.33,3.74-1.33,0,0-1.48.44-3.68.88-2.2.44-5.11.85-7.92.89-.7,0-1.39,0-2.07-.04-.02,0-.04,0-.06,0,2.02-2.28,4.37-4.2,6.96-5.45,5.05-2.47,9.37-1.41,13.06,1.32-2.04,3.25-5.53,6.73-8.59,8.13-5,2.31-9.28.96-11.66-2.37.68-.04,1.37-.11,2.06-.19Z"/>
                <path class="cls-1" d="M293.32,249.39c-2.79,0-5.26-1.22-6.94-3.57l-.13-.18h.23c.63-.05,1.3-.11,2.05-.2h0c3.36-.41,6.55-1.32,8.16-1.83.57-.18,1.1-.36,1.56-.52-.44.1-.92.21-1.45.31-1.58.32-4.71.85-7.94.89-.76,0-1.44,0-2.08-.04l-.32-.02.17-.2c2.15-2.43,4.51-4.27,7-5.48,4.54-2.22,8.98-1.78,13.19,1.33l.09.07-.06.1c-2.19,3.49-5.74,6.85-8.65,8.18-1.67.77-3.33,1.15-4.88,1.15ZM286.72,245.86c2.55,3.39,6.89,4.22,11.38,2.15,2.84-1.3,6.31-4.57,8.48-7.99-4.15-3.03-8.35-3.44-12.83-1.24-2.4,1.16-4.67,2.92-6.75,5.23.58.03,1.19.04,1.86.03,3.21-.04,6.32-.57,7.89-.89,1.9-.38,3.28-.76,3.66-.87l.06-.02h.02s.03.02.04.03h0s-.07.11-.07.11l.04.11-.04-.1.03.11s-.01,0-.02,0h0c-.5.21-1.86.74-3.71,1.32-1.61.51-4.82,1.42-8.2,1.84h0c-.67.08-1.27.14-1.84.18Z"/>
              </g>
              <g>
                <path class="cls-1" d="M285.3,241.46c-1.12-2.68-2.54-5.08-3.68-6.8-1.14-1.72-1.99-2.76-1.99-2.76,0,0,.74,1.16,1.68,3.05.94,1.88,2.08,4.5,2.88,7.34.2.71.38,1.43.53,2.15,0,.02,0,.04.01.07-2.3-.2-4.32-1.24-5.85-3.05-2.98-3.57-3.1-8.76-2.68-14.15,2.55-.09,5.77.7,7.71,2.53,3.15,2.95,3.97,8.26,2.12,13.56-.22-.65-.47-1.3-.73-1.93Z"/>
                <path class="cls-1" d="M284.72,244.63c-2.35-.2-4.4-1.27-5.93-3.09-3.07-3.68-3.12-9.02-2.71-14.24v-.11s.12,0,.12,0c2.25-.08,5.67.55,7.8,2.56,3.17,2.97,4.02,8.34,2.15,13.69l-.12.34-.12-.34c-.2-.59-.44-1.22-.73-1.92h0c-1.16-2.77-2.64-5.22-3.67-6.78-.27-.4-.52-.76-.75-1.09.22.41.44.83.65,1.25.85,1.7,2.05,4.36,2.89,7.36.21.77.39,1.48.53,2.16l.04.2h-.16ZM276.32,227.43c-.4,5.13-.34,10.36,2.66,13.95,1.45,1.73,3.39,2.76,5.6,2.99-.14-.66-.31-1.32-.51-2.04-.84-2.98-2.02-5.62-2.87-7.32-.54-1.08-1.13-2.14-1.65-3,0-.01-.02-.03-.02-.04-.01-.02-.02-.04-.02-.07,0-.03,0-.06.04-.09l.31-.31-.08.37c.36.45,1.08,1.39,1.96,2.72,1.04,1.57,2.53,4.03,3.7,6.82h0c.24.57.44,1.09.62,1.59,1.68-5.14.83-10.24-2.2-13.08-2.04-1.93-5.28-2.55-7.51-2.5Z"/>
              </g>
            </g>
            <g>
              <g>
                <path class="cls-1" d="M298.78,223.61c2.69-.84,5.34-2.05,7.31-3.08,1.97-1.03,3.26-1.86,3.26-1.86,0,0-1.31.66-3.29,1.43-1.98.77-4.62,1.65-7.24,2.16-.65.12-1.3.23-1.94.31-.02,0-.04,0-.06,0,1.47-2.46,3.33-4.64,5.52-6.24,4.29-3.15,8.52-2.86,12.46-.93-1.34,3.35-3.97,7.16-6.58,8.97-4.25,2.98-8.49,2.46-11.33-.24.62-.15,1.26-.33,1.89-.53Z"/>
                <path class="cls-1" d="M302.4,226.5c-2.05,0-4-.76-5.6-2.28l-.17-.16.22-.05c.57-.14,1.19-.31,1.88-.52h0c3.06-.95,5.88-2.33,7.29-3.07.46-.24.88-.47,1.27-.69-.36.15-.77.32-1.2.49-1.42.56-4.26,1.58-7.26,2.16-.72.14-1.36.24-1.95.31-.01,0-.03,0-.05,0l-.24.02.11-.21c1.57-2.62,3.44-4.73,5.56-6.28,3.85-2.83,8.09-3.15,12.59-.95l.1.05-.04.11c-1.44,3.6-4.16,7.31-6.62,9.03-1.93,1.35-3.96,2.03-5.89,2.03ZM297.15,224.2c3,2.7,7.2,2.74,11,.07,2.4-1.67,5.06-5.28,6.49-8.81-4.43-2.13-8.43-1.81-12.23.97-2.04,1.48-3.84,3.5-5.36,5.99.53-.07,1.1-.17,1.74-.29,2.98-.58,5.8-1.59,7.22-2.15,1.62-.63,2.81-1.2,3.25-1.41.01,0,.03-.01.04-.02.02,0,.05-.01.08,0,.01,0,.02,0,.04.02l-.06.11.06.1-.03.02c-.43.27-1.61.99-3.23,1.84-1.42.74-4.25,2.13-7.33,3.09h0c-.61.19-1.16.34-1.67.47Z"/>
              </g>
              <g>
                <path class="cls-1" d="M295.01,220.34c-1.54-2.31-3.3-4.31-4.67-5.72-1.37-1.41-2.36-2.24-2.36-2.25,0,0,.89.97,2.12,2.57,1.22,1.6,2.76,3.85,4.02,6.35.31.63.61,1.27.89,1.91,0,.02.02.04.02.06-2.18.21-4.27-.41-6.02-1.84-3.44-2.82-4.49-7.64-5.04-12.78,2.37-.52,5.53-.32,7.67,1.07,3.47,2.24,5.17,7.05,4.41,12.29-.33-.57-.68-1.13-1.04-1.67Z"/>
                <path class="cls-1" d="M294.21,223.43c-1.93,0-3.74-.65-5.29-1.91-3.59-2.94-4.58-8.15-5.08-12.86v-.11s.1-.02.1-.02c2.11-.46,5.4-.45,7.76,1.09,3.48,2.24,5.23,7.11,4.46,12.41l-.05.36-.18-.31c-.3-.52-.64-1.06-1.03-1.66h0c-1.59-2.39-3.41-4.42-4.66-5.7-.29-.3-.56-.57-.81-.82.24.29.49.62.76.97,1.1,1.45,2.7,3.73,4.03,6.37.33.67.63,1.31.89,1.92l.08.19-.16.04c-.28.03-.55.04-.83.04ZM284.1,208.75c.5,4.63,1.49,9.72,4.98,12.58,1.67,1.36,3.67,1.99,5.76,1.83-.25-.59-.53-1.19-.84-1.8-1.32-2.63-2.91-4.9-4.01-6.33-.95-1.25-1.71-2.12-2.08-2.53-.01-.01-.02-.02-.03-.04-.01-.02-.02-.04-.03-.06,0-.01,0-.02,0-.04l.13.02.08-.09.03.02c.41.36,1.26,1.12,2.33,2.23,1.25,1.29,3.09,3.33,4.68,5.74h0c.32.48.6.93.86,1.36.63-5.06-1.08-9.67-4.4-11.81-2.25-1.47-5.4-1.5-7.46-1.08Z"/>
              </g>
            </g>
            <g>
              <g>
                <path class="cls-1" d="M304.68,200.33c2.36-1.24,4.63-2.81,6.29-4.1,1.66-1.29,2.72-2.27,2.72-2.27,0,0-1.11.83-2.83,1.88-1.71,1.05-4.04,2.31-6.39,3.23-.59.23-1.18.44-1.76.62-.02,0-.04.01-.05.02.94-2.54,2.3-4.89,4.08-6.75,3.47-3.65,7.48-4.09,11.5-2.95-.68,3.33-2.48,7.31-4.59,9.43-3.44,3.48-7.5,3.72-10.63,1.7.56-.25,1.12-.52,1.67-.81Z"/>
                <path class="cls-1" d="M307.2,202.53c-1.46,0-2.91-.42-4.25-1.29l-.19-.13.21-.09c.52-.23,1.06-.5,1.66-.81h0c2.68-1.4,5.08-3.16,6.27-4.09.35-.28.68-.54.98-.78-.29.19-.6.39-.94.59-1.23.76-3.7,2.19-6.41,3.24-.65.25-1.22.45-1.77.62h-.03s-.24.07-.24.07l.06-.22c1-2.71,2.38-4.99,4.1-6.79,3.12-3.28,7.03-4.29,11.62-2.98l.11.03-.02.11c-.73,3.59-2.63,7.49-4.63,9.5-1.97,1.99-4.27,3.01-6.54,3.01ZM303.28,201.16c3.28,1.99,7.2,1.31,10.28-1.81,1.94-1.95,3.8-5.74,4.54-9.26-4.51-1.25-8.2-.28-11.26,2.95-1.65,1.72-2.98,3.9-3.96,6.47.49-.16,1-.34,1.56-.56,2.69-1.05,5.15-2.47,6.37-3.22,1.48-.91,2.52-1.66,2.8-1.87l.04-.04h0s.01,0,.01,0l.08.02h0s0,0,0,0l-.05.11.08.09c-.37.34-1.35,1.21-2.73,2.28-1.2.93-3.61,2.7-6.31,4.11h0c-.52.27-1,.51-1.46.72Z"/>
              </g>
              <g>
                <path class="cls-1" d="M300.58,197.93c-1.84-1.89-3.84-3.46-5.37-4.55-1.53-1.09-2.59-1.7-2.59-1.7,0,0,1,.75,2.42,2.04,1.42,1.29,3.25,3.13,4.87,5.25.4.53.8,1.07,1.17,1.63.01.02.02.03.03.05-2,.57-4.06.35-5.96-.68-3.71-2.04-5.55-6.37-6.94-11.11,2.13-.89,5.12-1.23,7.36-.29,3.63,1.51,6.04,5.72,6.26,10.73-.41-.48-.83-.93-1.26-1.38Z"/>
                <path class="cls-1" d="M298.95,201.08c-1.32,0-2.63-.34-3.85-1-3.91-2.14-5.73-6.85-7-11.18l-.03-.11.1-.04c1.89-.79,4.98-1.33,7.46-.29,3.63,1.51,6.12,5.77,6.33,10.84l.02.36-.24-.28c-.37-.44-.79-.88-1.26-1.37h0c-1.91-1.96-3.96-3.54-5.35-4.53-.29-.2-.56-.39-.81-.56.27.23.53.47.8.71,1.28,1.17,3.17,3.03,4.89,5.27.44.58.82,1.11,1.17,1.64.01.02.02.03.03.05l.1.14-.17.05c-.73.21-1.47.31-2.2.31ZM288.38,188.94c1.25,4.25,3.05,8.84,6.84,10.92,1.79.97,3.76,1.22,5.7.72-.33-.49-.69-.99-1.1-1.53-1.7-2.23-3.58-4.07-4.86-5.23-1.1-1-1.97-1.69-2.38-2.01,0,0-.02-.01-.03-.03-.02-.02-.04-.04-.05-.06,0-.03,0-.06,0-.09l.24-.47v.46c.48.29,1.38.85,2.54,1.67,1.4.99,3.46,2.59,5.39,4.56h0c.38.39.72.75,1.03,1.11-.31-4.82-2.71-8.82-6.16-10.26-2.36-.99-5.3-.5-7.16.25Z"/>
              </g>
            </g>
            <g>
              <g>
                <path class="cls-1" d="M306.19,176.44c1.99-1.56,3.83-3.41,5.16-4.89,1.33-1.48,2.15-2.58,2.15-2.57,0,0-.89.96-2.31,2.23-1.42,1.27-3.36,2.84-5.4,4.09-.51.31-1.02.61-1.53.88-.02,0-.03.02-.05.02.43-2.53,1.29-4.95,2.63-6.99,2.61-3.99,6.28-5.06,10.22-4.68-.06,3.21-1.05,7.21-2.66,9.54-2.61,3.82-6.34,4.75-9.62,3.4.48-.33.95-.68,1.42-1.04Z"/>
                <path class="cls-1" d="M307.63,178.18c-.96,0-1.94-.19-2.9-.59l-.21-.09.19-.13c.43-.3.9-.64,1.41-1.04,2.25-1.76,4.19-3.81,5.14-4.87.25-.28.48-.55.7-.8-.21.2-.44.41-.69.63-1.02.92-3.09,2.67-5.42,4.11-.57.35-1.07.64-1.54.88l-.27.14.04-.24c.46-2.7,1.35-5.06,2.65-7.04,2.37-3.63,5.76-5.18,10.34-4.73h.12s0,.13,0,.13c-.07,3.46-1.17,7.41-2.68,9.61-1.79,2.62-4.27,4.03-6.87,4.03ZM305.03,177.45c3.4,1.28,6.92-.02,9.25-3.44,1.47-2.14,2.55-5.97,2.63-9.36-4.42-.4-7.69,1.11-9.99,4.63-1.24,1.88-2.1,4.13-2.57,6.69.41-.22.85-.48,1.35-.78,2.32-1.43,4.37-3.17,5.38-4.08,1.16-1.04,1.98-1.89,2.28-2.2l.04-.04s.04-.02.07-.02v.13s.09.08.09.08l-.09-.07.08.08s0,0-.01.01h0c-.28.37-1.04,1.34-2.13,2.56-.96,1.07-2.91,3.13-5.17,4.9h0c-.44.34-.85.64-1.23.91Z"/>
              </g>
              <g>
                <path class="cls-1" d="M301.94,174.9c-2.05-1.45-4.18-2.58-5.8-3.34-1.62-.76-2.72-1.16-2.72-1.16,0,0,1.07.54,2.62,1.5,1.55.97,3.57,2.38,5.46,4.08.47.43.93.87,1.38,1.32.01.01.03.03.04.04-1.77.87-3.73,1.02-5.68.39-3.82-1.26-6.29-5.01-8.4-9.24,1.84-1.19,4.57-2.02,6.82-1.51,3.65.81,6.63,4.34,7.7,8.98-.46-.37-.94-.73-1.42-1.07Z"/>
                <path class="cls-1" d="M299.64,178.26c-.81,0-1.62-.13-2.43-.4-4.04-1.34-6.55-5.45-8.48-9.3l-.05-.1.09-.06c1.63-1.06,4.42-2.09,6.92-1.52,3.64.81,6.71,4.37,7.8,9.07l.08.35-.28-.23c-.42-.34-.88-.69-1.41-1.07-2.12-1.5-4.31-2.64-5.78-3.33-.27-.13-.52-.24-.76-.35.26.15.52.31.78.48,1.4.88,3.49,2.3,5.48,4.09.51.46.96.9,1.38,1.32l.16.17-.15.07c-1.07.52-2.19.79-3.33.79ZM289,168.55c1.89,3.77,4.36,7.78,8.28,9.07,1.84.6,3.71.49,5.42-.31-.39-.4-.81-.8-1.29-1.23-1.97-1.78-4.05-3.2-5.44-4.07-.89-.55-1.8-1.08-2.57-1.48,0,0-.02,0-.03-.02-.03-.01-.05-.03-.06-.06-.02-.03-.02-.06,0-.11l.14-.28.07.24c.5.19,1.44.56,2.67,1.14,1.48.69,3.68,1.84,5.82,3.35h0c.42.3.79.58,1.14.85-1.14-4.43-4.06-7.76-7.52-8.53-2.37-.54-5.03.42-6.63,1.43Z"/>
              </g>
            </g>
            <g>
              <g>
                <path class="cls-1" d="M303.57,154.32c1.6-1.77,3.01-3.79,4-5.38.99-1.59,1.58-2.74,1.58-2.74,0,0-.68,1.03-1.79,2.44-1.11,1.41-2.67,3.18-4.36,4.68-.42.37-.85.73-1.28,1.07-.01.01-.03.02-.04.03-.02-2.44.38-4.84,1.3-6.95,1.77-4.14,5.03-5.71,8.77-5.96.47,3.01.19,6.88-.91,9.31-1.8,3.97-5.13,5.44-8.41,4.7.39-.38.77-.79,1.15-1.2Z"/>
                <path class="cls-1" d="M304.03,155.82c-.54,0-1.08-.06-1.64-.19l-.22-.05.16-.16c.36-.35.73-.74,1.14-1.19,1.8-2,3.27-4.22,3.99-5.36.17-.27.32-.52.47-.76-.15.19-.31.4-.47.61-.8,1.02-2.44,2.98-4.37,4.69-.46.41-.89.76-1.29,1.07l-.2.16-.04-.22c-.02-2.56.43-4.98,1.31-7,1.61-3.77,4.52-5.74,8.87-6.03h.12s.02.11.02.11c.5,3.23.12,7.09-.92,9.38-1.43,3.16-3.99,4.96-6.91,4.96ZM302.67,155.44c3.36.65,6.43-1.13,8.04-4.68,1.02-2.22,1.39-5.96.92-9.13-4.19.31-6.99,2.24-8.55,5.88-.83,1.92-1.28,4.22-1.29,6.65.35-.28.72-.59,1.11-.93,1.92-1.7,3.55-3.65,4.34-4.66.87-1.1,1.48-1.98,1.76-2.41,0-.01.02-.02.03-.04.01-.02.03-.03.06-.04.01,0,.02,0,.04,0h0v.13s.11.06.11.06c-.21.41-.77,1.44-1.58,2.74-.72,1.15-2.2,3.38-4.01,5.4h0c-.35.39-.68.73-.99,1.04Z"/>
              </g>
              <g>
                <path class="cls-1" d="M299.36,153.56c-2.15-1.03-4.33-1.76-5.96-2.22-1.63-.46-2.72-.66-2.72-.66,0,0,1.08.34,2.69,1.01,1.6.67,3.73,1.67,5.76,2.96.51.32,1.01.66,1.5,1.02.02.01.03.02.04.03-1.5,1.1-3.3,1.55-5.22,1.27-3.77-.57-6.7-3.71-9.37-7.37,1.52-1.41,3.93-2.61,6.11-2.47,3.54.2,6.9,3.05,8.67,7.22-.49-.28-1-.53-1.5-.78Z"/>
                <path class="cls-1" d="M296.56,157.17c-.37,0-.75-.03-1.13-.08-4-.61-7.02-4.09-9.45-7.42l-.07-.09.08-.08c1.34-1.25,3.76-2.65,6.2-2.51,3.53.2,6.97,3.06,8.77,7.29l.14.34-.32-.18c-.45-.25-.94-.51-1.49-.77h0c-2.22-1.07-4.46-1.79-5.94-2.21-.23-.07-.46-.13-.67-.18.22.09.46.18.71.29,1.45.6,3.63,1.61,5.78,2.97.56.36,1.05.69,1.51,1.02l.14.1-.09.13c-1.24.91-2.67,1.37-4.19,1.37ZM286.25,149.61c2.39,3.26,5.35,6.64,9.22,7.23,1.8.27,3.53-.13,4.99-1.14-.44-.31-.89-.62-1.4-.94-2.13-1.36-4.3-2.35-5.75-2.95-1.31-.54-2.29-.88-2.65-.99l-.09-.02-.02-.11h.12l.03-.12c.38.07,1.37.28,2.73.67,1.49.42,3.74,1.15,5.98,2.22h0c.43.21.82.41,1.18.6-1.8-3.96-5.07-6.62-8.41-6.8-2.15-.13-4.52,1.08-5.94,2.37Z"/>
              </g>
            </g>
            <g>
              <g>
                <path class="cls-1" d="M296.71,132.05c1.16-1.92,2.12-4.03,2.75-5.68.64-1.65.98-2.81.98-2.81,0,0-.45,1.07-1.23,2.57-.78,1.49-1.91,3.4-3.21,5.08-.33.42-.66.82-1,1.21-.01.01-.02.02-.03.03-.45-2.28-.51-4.59-.04-6.71.91-4.16,3.66-6.14,7.09-6.98.97,2.73,1.4,6.38.8,8.83-.97,3.99-3.79,5.91-6.97,5.77.29-.42.58-.86.85-1.31Z"/>
                <path class="cls-1" d="M296.2,133.49c-.11,0-.23,0-.34,0h-.23s.13-.2.13-.2c.26-.38.54-.81.85-1.3,1.32-2.17,2.29-4.48,2.74-5.66.09-.24.18-.47.26-.68-.09.17-.18.36-.28.55-.57,1.08-1.74,3.18-3.23,5.1-.36.46-.68.85-1,1.21l-.17.19-.08-.21c-.48-2.39-.49-4.73-.04-6.76.83-3.78,3.18-6.1,7.19-7.07l.11-.03.04.11c1.04,2.93,1.37,6.59.8,8.9-.88,3.65-3.45,5.87-6.75,5.87ZM296.09,133.24s.07,0,.1,0c3.18,0,5.66-2.15,6.51-5.68.55-2.24.23-5.78-.76-8.65-3.84.97-6.09,3.21-6.89,6.86-.43,1.93-.43,4.14,0,6.41.28-.32.56-.66.86-1.04,1.48-1.9,2.64-3.99,3.2-5.06.64-1.23,1.06-2.18,1.21-2.54l.03-.06.05-.03h0s.02,0,.02,0l1.17-.23-1.04.44c-.13.44-.46,1.45-.97,2.77-.46,1.19-1.43,3.51-2.76,5.7h0c-.26.42-.5.79-.72,1.13Z"/>
              </g>
              <g>
                <path class="cls-1" d="M292.66,132.02c-2.18-.62-4.34-.94-5.94-1.11-1.6-.17-2.65-.19-2.65-.19,0,0,1.07.15,2.68.51,1.61.37,3.76.96,5.89,1.84.53.22,1.06.45,1.58.7.02,0,.03.02.05.02-1.2,1.27-2.79,2-4.62,2.04-3.61.08-6.89-2.39-10.05-5.41,1.16-1.57,3.18-3.08,5.24-3.3,3.33-.37,6.96,1.76,9.36,5.37-.51-.18-1.02-.34-1.53-.48Z"/>
                <path class="cls-1" d="M289.48,135.98c-3.77,0-7.15-2.75-9.96-5.45l-.08-.08.07-.09c1.02-1.39,3.03-3.1,5.33-3.35,3.33-.37,7.04,1.76,9.47,5.42l.21.31-.35-.12c-.46-.16-.96-.32-1.53-.48h0c-2.25-.64-4.46-.95-5.92-1.11-.19-.02-.37-.04-.54-.05.19.04.4.09.61.13,1.46.33,3.67.92,5.91,1.85.59.24,1.1.48,1.58.71l.14.08-.06.15c-1.24,1.31-2.87,2.03-4.71,2.08-.06,0-.12,0-.17,0ZM279.77,130.42c2.76,2.64,6.07,5.31,9.71,5.31.06,0,.11,0,.17,0,1.72-.04,3.24-.69,4.42-1.88-.44-.21-.92-.43-1.46-.65-2.22-.92-4.42-1.5-5.87-1.83-1.33-.3-2.3-.46-2.65-.51h-.11s-.02-.13-.02-.13h.12v-.12c.37.01,1.33.05,2.67.19,1.46.16,3.69.48,5.96,1.12h0c.43.12.82.24,1.18.36-2.38-3.4-5.88-5.35-9.03-5-2.03.22-4,1.73-5.09,3.16Z"/>
              </g>
            </g>
            <g>
              <g>
                <path class="cls-1" d="M285.09,110.37c.7-1.99,1.17-4.12,1.44-5.76.27-1.64.36-2.79.36-2.79,0,0-.2,1.08-.63,2.6-.43,1.53-1.1,3.5-1.98,5.28-.22.44-.45.88-.69,1.3-.89-2.01-1.41-4.16-1.39-6.23.02-4.04,2.19-6.34,5.22-7.69,1.43,2.39,2.55,5.72,2.48,8.1-.11,3.88-2.35,6.16-5.32,6.56.19-.44.36-.9.53-1.37Z"/>
                <path class="cls-1" d="M284.36,111.89l.09-.2c.17-.4.34-.85.53-1.36h0c.79-2.25,1.24-4.56,1.43-5.74.03-.21.06-.4.09-.59-.04.15-.08.3-.13.46-.31,1.11-.99,3.27-1.99,5.3-.23.47-.47.91-.69,1.3l-.12.21-.1-.22c-.93-2.1-1.42-4.27-1.4-6.28.02-3.68,1.75-6.23,5.29-7.8l.1-.04.06.09c1.54,2.56,2.57,5.92,2.5,8.17-.11,3.68-2.19,6.24-5.43,6.68l-.22.03ZM286.88,101.82h.12c-.03.41-.13,1.44-.36,2.81-.19,1.19-.64,3.52-1.44,5.78h0c-.15.43-.3.82-.45,1.17,2.99-.5,4.9-2.94,5-6.4.07-2.17-.92-5.42-2.4-7.94-3.37,1.53-5.02,4-5.04,7.53-.02,1.9.42,3.95,1.28,5.95.18-.33.37-.69.56-1.07.99-2.02,1.66-4.16,1.97-5.26.36-1.25.56-2.21.63-2.57v-.07s.08-.04.08-.04h0s0,0,0,0l.04.12Z"/>
              </g>
              <g>
                <path class="cls-1" d="M281.33,111.03c-2.15-.21-4.22-.16-5.74-.06-1.52.11-2.51.26-2.51.26,0,0,1.03-.04,2.6.04,1.57.08,3.69.28,5.84.75.54.12,1.07.25,1.6.39.02,0,.03,0,.05.01-.86,1.39-2.19,2.34-3.88,2.69-3.33.68-6.88-1.09-10.43-3.43.76-1.67,2.35-3.41,4.22-3.95,3.03-.89,6.84.52,9.77,3.48-.51-.08-1.01-.14-1.52-.19Z"/>
                <path class="cls-1" d="M277.81,115.39c-3.1,0-6.26-1.78-9.02-3.59l-.09-.06.04-.1c.67-1.47,2.2-3.41,4.3-4.02,3.02-.89,6.91.49,9.9,3.52l.27.27-.38-.06c-.46-.07-.95-.14-1.51-.19h0c-2.22-.22-4.33-.15-5.72-.06-.14,0-.28.02-.41.03.16,0,.33.01.5.02,1.43.07,3.6.26,5.86.75.59.13,1.12.26,1.61.4l.16.04-.04.16c-.89,1.44-2.26,2.39-3.96,2.75-.5.1-1,.15-1.51.15ZM269.01,111.64c3.15,2.06,6.82,4.06,10.25,3.35,1.58-.33,2.86-1.19,3.71-2.49-.45-.12-.94-.24-1.48-.36-2.24-.48-4.4-.67-5.82-.74-1.3-.06-2.23-.05-2.57-.04h-.04s-.06-.03-.06-.03h0s0,0,0,0l.09-.09v-.12c.33-.05,1.23-.17,2.5-.26,1.39-.1,3.53-.16,5.76.06h0c.41.04.79.09,1.14.14-2.89-2.77-6.53-4.02-9.38-3.18-1.85.54-3.38,2.27-4.1,3.78Z"/>
              </g>
            </g>
            <g>
              <g>
                <path class="cls-1" d="M270.74,92.79c.28-1.96.31-4.03.25-5.6-.06-1.58-.19-2.66-.19-2.66,0,0,.01,1.04-.1,2.53-.12,1.49-.37,3.43-.85,5.23-.12.45-.25.89-.4,1.31-1.22-1.75-2.11-3.69-2.48-5.63-.75-3.79.85-6.26,3.43-7.95,1.79,2.02,3.46,4.97,3.84,7.21.62,3.64-1.03,6.1-3.73,6.92.09-.44.17-.9.23-1.36Z"/>
                <path class="cls-1" d="M270.34,94.33l.04-.21c.08-.4.16-.84.23-1.35.31-2.22.29-4.45.25-5.58,0-.16-.01-.32-.02-.47,0,.11-.02.23-.02.34-.08,1.08-.31,3.2-.86,5.26-.14.53-.27.95-.4,1.32l-.08.23-.14-.2c-1.27-1.83-2.14-3.79-2.5-5.68-.68-3.45.46-6.09,3.49-8.08l.09-.06.07.08c1.92,2.17,3.51,5.16,3.87,7.27.59,3.46-.87,6.17-3.82,7.06l-.2.06ZM270.92,84.51c.04.38.14,1.35.19,2.67.04,1.14.07,3.39-.25,5.63h0c-.06.43-.13.81-.19,1.15,2.68-.91,4-3.47,3.44-6.72-.34-2.04-1.87-4.93-3.74-7.06-2.87,1.92-3.94,4.46-3.29,7.76.35,1.78,1.15,3.64,2.32,5.38.1-.31.2-.65.31-1.07.54-2.03.76-4.14.85-5.21.1-1.23.1-2.16.1-2.5v-.07l.05-.05h0s0,0,0,0l.07.11h.12Z"/>
              </g>
              <g>
                <path class="cls-1" d="M267.36,93.96c-2.05.12-3.98.46-5.38.78-1.41.32-2.3.61-2.3.6,0,0,.96-.18,2.45-.33,1.49-.15,3.51-.27,5.61-.15.52.03,1.05.07,1.57.13.02,0,.03,0,.05,0-.54,1.43-1.6,2.51-3.11,3.09-2.98,1.13-6.65-.01-10.44-1.72.39-1.67,1.55-3.54,3.2-4.31,2.68-1.27,6.52-.49,9.82,1.85-.49,0-.97.02-1.46.04Z"/>
                <path class="cls-1" d="M263.6,98.67c-2.57,0-5.35-1.06-7.86-2.18l-.09-.04.02-.1c.34-1.48,1.41-3.52,3.27-4.4,2.67-1.26,6.57-.53,9.95,1.87l.32.23h-.39c-.44-.01-.91.01-1.45.04h0c-2.11.12-4.08.49-5.36.78-.1.02-.19.04-.29.07.13-.01.26-.03.39-.04,1.35-.14,3.42-.28,5.63-.15.62.04,1.12.08,1.58.13l.16.02v.16c-.57,1.49-1.67,2.58-3.19,3.17-.85.32-1.75.46-2.68.46ZM255.93,96.3c3.35,1.5,7.17,2.84,10.25,1.67,1.4-.54,2.43-1.53,2.98-2.87-.42-.05-.89-.09-1.45-.12-2.19-.13-4.25.01-5.59.15-1.23.13-2.1.27-2.41.33l-.06.02-.06-.03h0s0,0,0,0l.08-.1-.03-.12c.24-.07,1.08-.33,2.31-.61,1.29-.29,3.28-.66,5.4-.78h0c.38-.02.73-.03,1.07-.04-3.22-2.16-6.87-2.8-9.37-1.62-1.63.76-2.73,2.6-3.11,4.13Z"/>
              </g>
            </g>
          </g>
          <g>
            <path class="cls-1" d="M260.89,85.31c-1.99-1.68-4.08-3.09-5.67-4.05-1.59-.96-2.68-1.48-2.68-1.48,0,0,1.08.62,2.65,1.69,1.56,1.07,3.6,2.64,5.49,4.43.47.45.94.9,1.38,1.37.01.01.03.03.04.04-1.37-.02-2.99-.51-4.79-1.47-3.52-1.88-6.54-4.97-9.42-8.32,1.48-.53,3.95-.48,6.13.5,3.55,1.57,6.66,5.01,8.25,8.52-.45-.42-.91-.82-1.38-1.22Z"/>
            <path class="cls-1" d="M262.1,87.43c-1.41-.02-3.04-.52-4.85-1.49-3.71-1.98-6.86-5.34-9.45-8.35l-.12-.14.17-.06c1.41-.51,3.89-.55,6.22.5,3.41,1.51,6.59,4.79,8.31,8.58l.25.56-.45-.42c-.42-.39-.87-.79-1.38-1.22h0c-1.81-1.53-3.59-2.75-4.82-3.52,1.2.86,2.98,2.23,4.77,3.92.52.49.97.94,1.39,1.37l.21.22-.26.04ZM248.11,77.57c2.55,2.96,5.64,6.22,9.26,8.15,1.64.88,3.12,1.36,4.42,1.44-.37-.38-.76-.76-1.2-1.18-2.2-2.08-4.37-3.66-5.47-4.41-.62-.43-1.57-1.06-2.59-1.66-.02-.01-.04-.03-.06-.04-.02-.01-.03-.03-.04-.04,0-.01,0-.02-.01-.04l.12-.02.06-.11.05.02c1.03.52,2,1.08,2.63,1.46,1.13.68,3.38,2.11,5.69,4.06h0c.33.28.63.54.91.8-1.73-3.44-4.77-6.5-7.91-7.88-2.16-.97-4.51-.97-5.86-.55Z"/>
          </g>
        </g>
        <g>
          <path class="cls-1" d="M259.51,84.93c73.93,62.41,51.44,184.9-46.95,214.28-.62.18-.97.83-.78,1.44v.02c.2.61.85.95,1.46.77,100.04-30.87,120.76-154.89,46.27-216.51Z"/>
          <path class="cls-1" d="M212.9,301.61c-.55,0-1.06-.35-1.23-.91-.11-.35-.08-.69.08-1,.16-.3.43-.53.77-.63,45.59-13.61,78.47-48.9,87.95-94.4,9.43-45.27-5.91-90-41.05-119.66l.16-.19c17.84,14.76,31.09,33.99,38.33,55.64,6.89,20.59,8.26,42.88,3.98,64.47-4.32,21.77-14.26,41.99-28.73,58.47-7.58,8.63-16.38,16.21-26.15,22.52-10.23,6.61-21.59,11.87-33.75,15.62-.13.04-.25.06-.38.06ZM282.83,110.78c6.19,9.26,11.09,19.31,14.54,29.92,6.66,20.51,7.82,42.65,3.36,64.04-4.48,21.49-14.48,41.39-28.92,57.55-7.55,8.45-16.28,15.84-25.94,21.97-10.12,6.42-21.31,11.49-33.27,15.06-.27.08-.49.26-.62.5-.13.24-.16.52-.07.78.18.57.76.88,1.3.71,46.24-14.27,79.31-50.32,88.46-96.42,6.6-33.28-.53-67.07-18.83-94.12Z"/>
        </g>
      </g>
    </g>
    <path class="cls-1" d="M199.4,306.66h-13.94v-2.33h1.15c.17,0,.33-.09.42-.23s.09-.33.01-.48l-3.31-6.2c-.08-.16-.25-.26-.43-.26s-.34.1-.43.26l-3.31,6.2c-.08.15-.08.33.01.48s.25.23.42.23h1.15v6.22c0,.13.05.25.14.34.09.09.21.14.34.14h.59l-1.96,3.66-1.96-3.66h.59c.27,0,.48-.22.48-.48v-3.41c0-.27-.22-.48-.48-.48h-11.01c-3.16,0-5.48-1.22-6.55-3.43-.95-1.97-.76-4.5.49-6.43,1.12-1.73,2.88-2.69,4.96-2.69h0c.33,0,.68.03,1.02.07l.12.02c.23.03.44-.1.52-.31l.05-.12c.89-2.42,2.88-4.04,5.18-4.25,1.7-.15,3.37.51,4.63,1.82l.16.16c.11.12.27.17.43.14.16-.03.29-.13.36-.28l.09-.21c1.5-3.38,4.3-5.4,7.49-5.4h0c.67,0,1.36.09,2.04.27,3.52.91,7.01,4.28,6.88,9.74v.2c0,.14.05.28.16.37.11.09.25.14.39.12l.18-.03c.45-.06.89-.09,1.31-.09,2.2,0,3.9.84,4.92,2.42,1.05,1.63,1.2,3.88.36,5.6-.72,1.49-2.03,2.32-3.68,2.32M203.78,298.02c-.73-1.13-2.47-3.01-5.97-3.01-.25,0-.52.01-.78.03-.08-2.45-.86-4.7-2.26-6.54-1.41-1.86-3.39-3.19-5.58-3.76-.79-.21-1.58-.31-2.36-.31-3.43,0-6.48,2-8.27,5.38-1.43-1.18-3.19-1.76-5-1.6-2.64.23-4.94,1.99-6.08,4.61-2.82-.24-5.24.94-6.73,3.24-1.5,2.31-1.72,5.35-.58,7.73,1.29,2.69,4.03,4.17,7.7,4.17h10.21v1.76h-1.15c-.17,0-.33.09-.42.23s-.09.33-.01.48l3.31,6.2c.08.16.25.26.43.26s.34-.1.43-.26l3.31-6.2c.08-.15.08-.33-.01-.48-.09-.15-.25-.24-.42-.24h-1.15v-6.22c0-.13-.05-.25-.14-.34-.09-.09-.21-.14-.34-.14h-.59l1.96-3.66,1.96,3.66h-.59c-.27,0-.48.22-.48.48v3.98c0,.27.22.48.48.48h14.74c2.13,0,3.89-1.11,4.83-3.05,1.03-2.12.85-4.89-.44-6.89"/>
    <g>
      <path class="cls-1" d="M142.5,110.55v46.55h-11.34v-46.55h11.34Z"/>
      <path class="cls-1" d="M158.41,155.91c-2.7-1.11-4.85-2.74-6.47-4.91-1.61-2.17-2.47-4.78-2.55-7.83h12.07c.17,1.72.77,3.04,1.79,3.95,1.02.91,2.34,1.36,3.98,1.36s3.01-.39,3.98-1.16c.97-.78,1.46-1.85,1.46-3.22,0-1.15-.39-2.1-1.16-2.85-.77-.75-1.72-1.37-2.85-1.86s-2.73-1.04-4.81-1.66c-3.01-.93-5.46-1.86-7.36-2.78-1.9-.93-3.54-2.3-4.91-4.11-1.37-1.81-2.06-4.18-2.06-7.1,0-4.33,1.57-7.72,4.71-10.18,3.14-2.46,7.23-3.68,12.27-3.68s9.26,1.23,12.4,3.68c3.14,2.46,4.82,5.87,5.04,10.24h-12.27c-.09-1.5-.64-2.68-1.66-3.55-1.02-.86-2.32-1.3-3.91-1.3-1.37,0-2.48.37-3.32,1.1-.84.73-1.26,1.78-1.26,3.15,0,1.5.71,2.68,2.12,3.51,1.41.84,3.63,1.75,6.63,2.72,3.01,1.01,5.45,1.99,7.33,2.92,1.88.93,3.5,2.28,4.87,4.04,1.37,1.77,2.06,4.05,2.06,6.83s-.67,5.06-2.02,7.23c-1.35,2.17-3.31,3.89-5.87,5.18-2.56,1.28-5.59,1.92-9.08,1.92s-6.45-.55-9.15-1.66Z"/>
      <path class="cls-1" d="M201.49,154.52c-3.65-2.03-6.54-4.87-8.69-8.52-2.14-3.65-3.21-7.75-3.21-12.3s1.07-8.64,3.21-12.27c2.15-3.63,5.04-6.45,8.69-8.49,3.65-2.03,7.66-3.05,12.04-3.05s8.39,1.01,12.04,3.05c3.65,2.03,6.52,4.86,8.62,8.49,2.1,3.63,3.15,7.72,3.15,12.27s-1.06,8.66-3.18,12.3c-2.12,3.65-5,6.49-8.62,8.52-3.63,2.03-7.63,3.05-12.01,3.05s-8.39-1.01-12.04-3.05ZM222.44,143.51c2.23-2.48,3.35-5.75,3.35-9.82s-1.12-7.39-3.35-9.84c-2.23-2.46-5.2-3.68-8.92-3.68s-6.75,1.21-8.99,3.64c-2.23,2.43-3.35,5.73-3.35,9.88s1.12,7.39,3.35,9.85c2.23,2.46,5.23,3.68,8.99,3.68s6.69-1.24,8.92-3.71Z"/>
      <path class="cls-1" d="M128.47,227.73c2.35,0,4-1.04,4.98-3.11.97-2.08,1.46-5.46,1.46-10.15-.97,1.37-2.3,2.43-3.98,3.18-1.68.76-3.56,1.13-5.63,1.13-2.83,0-5.35-.58-7.56-1.75-2.21-1.17-3.95-2.92-5.21-5.24-1.26-2.32-1.89-5.14-1.89-8.46s.67-6.12,2.02-8.55c1.35-2.43,3.27-4.31,5.77-5.63,2.5-1.33,5.45-1.99,8.85-1.99,6.55,0,11.12,2.03,13.73,6.1,2.61,4.07,3.91,10.06,3.91,17.97,0,5.75-.52,10.49-1.56,14.23-1.04,3.74-2.78,6.58-5.24,8.52-2.45,1.95-5.8,2.92-10.04,2.92-3.36,0-6.22-.66-8.59-1.99-2.36-1.33-4.18-3.07-5.43-5.24-1.26-2.16-1.98-4.55-2.16-7.16h10.48c.66,3.5,2.7,5.24,6.1,5.24ZM132.32,208.14c1.11-1.13,1.66-2.66,1.66-4.61,0-2.12-.57-3.76-1.72-4.91s-2.7-1.73-4.64-1.73-3.48.59-4.61,1.76c-1.13,1.17-1.69,2.77-1.69,4.81,0,1.9.57,3.44,1.69,4.61,1.13,1.17,2.75,1.75,4.87,1.75,1.86,0,3.34-.56,4.44-1.69Z"/>
      <path class="cls-1" d="M155.36,193.85c2.94-4.38,7.68-6.57,14.23-6.57s11.28,2.19,14.23,6.57c2.94,4.38,4.41,10.37,4.41,17.97s-1.47,13.73-4.41,18.11c-2.94,4.38-7.69,6.56-14.23,6.56s-11.28-2.19-14.23-6.56c-2.94-4.38-4.41-10.42-4.41-18.11s1.47-13.59,4.41-17.97ZM175.62,201.51c-.97-2.41-2.98-3.61-6.03-3.61s-5.06,1.2-6.03,3.61c-.98,2.41-1.46,5.85-1.46,10.31,0,3.01.18,5.49.53,7.46.35,1.97,1.07,3.56,2.15,4.78,1.08,1.22,2.69,1.82,4.81,1.82s3.72-.6,4.81-1.82c1.08-1.21,1.8-2.81,2.15-4.78.36-1.96.53-4.45.53-7.46,0-4.46-.49-7.9-1.46-10.31Z"/>
      <path class="cls-1" d="M198.6,193.85c2.94-4.38,7.68-6.57,14.23-6.57s11.28,2.19,14.23,6.57c2.94,4.38,4.41,10.37,4.41,17.97s-1.47,13.73-4.41,18.11c-2.94,4.38-7.69,6.56-14.23,6.56s-11.28-2.19-14.23-6.56c-2.94-4.38-4.41-10.42-4.41-18.11s1.47-13.59,4.41-17.97ZM218.86,201.51c-.97-2.41-2.98-3.61-6.03-3.61s-5.06,1.2-6.03,3.61c-.98,2.41-1.46,5.85-1.46,10.31,0,3.01.18,5.49.53,7.46.35,1.97,1.07,3.56,2.15,4.78,1.08,1.22,2.69,1.82,4.81,1.82s3.72-.6,4.81-1.82c1.08-1.21,1.8-2.81,2.15-4.78.36-1.96.53-4.45.53-7.46,0-4.46-.49-7.9-1.46-10.31Z"/>
      <path class="cls-1" d="M236.24,198.82v-10.55h18.37v48.41h-11.81v-37.86h-6.56Z"/>
    </g>
    <g>
      <path class="cls-2" d="M744.45,127.3c-22.39-69.59-87.76-120.08-164.7-120.08s-142.29,50.49-164.68,120.08c-5.39,16.68-8.3,34.47-8.3,52.91s2.91,36.23,8.28,52.91c22.4,69.59,87.76,120.08,164.7,120.08s142.31-50.49,164.71-120.08c5.38-16.68,8.28-34.46,8.28-52.91s-2.91-36.23-8.3-52.91ZM741.56,233.13c-22.3,68.05-86.4,117.32-161.81,117.32s-139.49-49.27-161.79-117.32c-5.46-16.66-8.43-34.44-8.43-52.91s2.96-36.25,8.43-52.91c22.3-68.03,86.4-117.3,161.79-117.3s139.5,49.27,161.81,117.3c5.46,16.66,8.43,34.44,8.43,52.91s-2.96,36.25-8.43,52.91Z"/>
      <path class="cls-2" d="M732.8,127.3c-21.97-63.39-82.27-109.02-153.05-109.02s-131.06,45.63-153.05,109.02c-5.75,16.59-8.87,34.4-8.87,52.91s3.12,36.32,8.87,52.91c21.98,63.39,82.28,109.02,153.05,109.02s131.08-45.63,153.05-109.02c5.77-16.59,8.89-34.4,8.89-52.91s-3.12-36.32-8.89-52.91ZM730.06,233.13c-21.85,61.93-80.98,106.43-150.3,106.43s-128.43-44.5-150.29-106.43c-5.87-16.56-9.05-34.37-9.05-52.91s3.18-36.35,9.05-52.91c21.85-61.93,80.97-106.42,150.29-106.42s128.45,44.49,150.3,106.42c5.87,16.56,9.05,34.37,9.05,52.91s-3.18,36.35-9.05,52.91Z"/>
      <path class="cls-2" d="M720.72,127.3h-58.55c-17.42-27.07-47.83-45.01-82.41-45.01s-64.98,17.94-82.41,45.01h-58.55c21.42-57.03,76.44-97.63,140.96-97.63s119.56,40.6,140.96,97.63Z"/>
      <path class="cls-2" d="M720.74,233.13c-21.41,57.05-76.44,97.63-140.98,97.63s-119.56-40.59-140.96-97.63h58.55c17.43,27.07,47.83,45.01,82.41,45.01s65-17.94,82.41-45.01h58.57Z"/>
      <g>
        <path class="cls-2" d="M559.37,149.85v58.8h-14.32v-35.26l-13.15,35.26h-11.56l-13.23-35.35v35.35h-14.32v-58.8h16.92l16.5,40.71,16.33-40.71h16.84Z"/>
        <path class="cls-2" d="M584,161.32v11.89h19.18v11.06h-19.18v12.9h21.69v11.48h-36.02v-58.8h36.02v11.48h-21.69Z"/>
        <path class="cls-2" d="M616.33,163.62c2.51-4.55,6.02-8.1,10.51-10.64,4.49-2.54,9.59-3.81,15.29-3.81,6.98,0,12.95,1.84,17.93,5.53,4.97,3.69,8.29,8.71,9.97,15.08h-15.75c-1.17-2.46-2.83-4.33-4.98-5.61-2.15-1.28-4.59-1.93-7.33-1.93-4.41,0-7.99,1.54-10.72,4.61-2.74,3.07-4.1,7.18-4.1,12.31s1.37,9.24,4.1,12.31c2.74,3.07,6.31,4.61,10.72,4.61,2.74,0,5.18-.64,7.33-1.93,2.15-1.28,3.81-3.15,4.98-5.61h15.75c-1.68,6.37-5,11.38-9.97,15.04-4.97,3.66-10.95,5.49-17.93,5.49-5.7,0-10.79-1.27-15.29-3.81-4.5-2.54-8-6.07-10.51-10.6-2.51-4.52-3.77-9.69-3.77-15.5s1.26-10.99,3.77-15.54Z"/>
      </g>
      <g>
        <path class="cls-1" d="M525.53,290.19c-1.04.54-2.22.75-3.55.63-1.33-.12-2.72-.66-4.18-1.62l-2.69-1.78-4.22,6.4-4.35-2.86,11.76-17.84,7.04,4.64c1.42.94,2.46,1.98,3.12,3.12.66,1.14.95,2.3.87,3.49s-.49,2.34-1.22,3.46c-.68,1.03-1.54,1.82-2.58,2.36ZM521.99,286.16c.66-.12,1.23-.54,1.7-1.25s.63-1.4.48-2.05-.64-1.26-1.47-1.81l-2.36-1.56-2.95,4.47,2.36,1.56c.83.55,1.58.76,2.24.64Z"/>
        <path class="cls-1" d="M536.26,288.52l-1.76,3.95,6.36,2.84-1.64,3.67-6.37-2.84-1.91,4.28,7.2,3.21-1.7,3.81-11.95-5.33,8.71-19.51,11.95,5.33-1.7,3.81-7.2-3.21Z"/>
        <path class="cls-1" d="M547.58,306.7l6.56,1.86-1.09,3.87-11.57-3.28,5.82-20.56,5.01,1.42-4.73,16.69Z"/>
        <path class="cls-1" d="M562.47,312.9c-1.58-1.09-2.77-2.52-3.58-4.28-.82-1.76-1.12-3.68-.91-5.76.21-2.08.88-3.9,2.02-5.46s2.59-2.72,4.35-3.49c1.76-.76,3.64-1.05,5.63-.85,2,.2,3.79.84,5.36,1.94,1.58,1.09,2.76,2.52,3.56,4.27.79,1.75,1.09,3.67.88,5.75-.21,2.08-.88,3.9-2.01,5.48-1.13,1.57-2.58,2.74-4.32,3.5-1.75.77-3.62,1.05-5.62.85-2-.2-3.79-.84-5.36-1.94ZM572.53,308.81c1.13-1.03,1.79-2.47,1.97-4.33.18-1.88-.18-3.43-1.09-4.65s-2.21-1.92-3.91-2.08c-1.72-.17-3.14.25-4.27,1.26s-1.79,2.46-1.97,4.36c-.19,1.88.18,3.43,1.09,4.65.91,1.22,2.22,1.92,3.94,2.09,1.7.17,3.11-.26,4.24-1.29Z"/>
        <path class="cls-1" d="M611.64,289.54l4.18,20.95-5.1,1.02-2.5-12.57-2.18,13.5-4.12.82-7.23-11.66,2.51,12.6-5.1,1.02-4.18-20.95,6.03-1.2,8.77,13.33,2.93-15.67,6-1.2Z"/>
        <path class="cls-1" d="M619.95,290.13l1.69,3.98,6.41-2.73,1.58,3.7-6.41,2.73,1.84,4.31,7.25-3.09,1.63,3.84-12.04,5.13-8.38-19.66,12.04-5.13,1.63,3.84-7.25,3.09Z"/>
        <path class="cls-1" d="M630.56,286.43c-.15-1.88.2-3.66,1.05-5.33s2.14-3.08,3.86-4.22c2.11-1.4,4.29-2.04,6.54-1.93,2.24.12,4.26.97,6.05,2.56l-4.77,3.16c-.85-.51-1.73-.74-2.64-.7-.91.04-1.78.34-2.61.89-1.34.89-2.11,2.07-2.32,3.55-.21,1.48.2,3,1.23,4.55,1.03,1.56,2.27,2.53,3.71,2.9,1.45.38,2.84.13,4.17-.76.83-.55,1.44-1.23,1.83-2.06.39-.82.52-1.72.38-2.7l4.77-3.16c.77,2.26.77,4.45,0,6.55-.77,2.11-2.21,3.86-4.33,5.26-1.72,1.14-3.52,1.78-5.39,1.92-1.87.13-3.64-.23-5.31-1.1-1.67-.86-3.09-2.18-4.25-3.94-1.17-1.76-1.83-3.58-1.98-5.46Z"/>
      </g>
      <g>
        <path class="cls-1" d="M496.95,102.33l-8.81-2.68-.89.87,5.62,5.78-3.73,3.63-14.9-15.31,6.26-6.09c1.21-1.17,2.44-1.96,3.7-2.37,1.26-.41,2.46-.45,3.6-.12s2.14.94,3.02,1.84c.99,1.02,1.59,2.21,1.79,3.57.2,1.36-.09,2.75-.88,4.17l9.43,2.63-4.21,4.1ZM484.68,97.88l2.31-2.25c.68-.66,1.03-1.33,1.05-2,.02-.67-.27-1.31-.87-1.92-.56-.58-1.18-.87-1.85-.88-.67,0-1.34.33-2.03.99l-2.31,2.25,3.69,3.8Z"/>
        <path class="cls-1" d="M497.13,79.9l2.54,3.49,5.63-4.11,2.37,3.25-5.63,4.1,2.76,3.79,6.37-4.64,2.46,3.37-10.58,7.71-12.58-17.27,10.58-7.71,2.46,3.37-6.37,4.64Z"/>
        <path class="cls-1" d="M508.7,72.8c.06-1.89.6-3.62,1.64-5.18,1.03-1.57,2.47-2.82,4.31-3.77,2.26-1.16,4.49-1.55,6.71-1.18,2.22.37,4.12,1.44,5.72,3.22l-5.09,2.61c-.79-.6-1.63-.93-2.54-.99-.91-.06-1.81.14-2.69.59-1.43.73-2.33,1.82-2.7,3.27-.38,1.45-.14,3,.71,4.66.85,1.66,1.97,2.76,3.37,3.3,1.39.54,2.8.44,4.23-.29.88-.45,1.57-1.07,2.05-1.84.48-.77.71-1.65.68-2.64l5.09-2.61c.51,2.34.27,4.51-.73,6.51s-2.63,3.59-4.89,4.75c-1.84.94-3.7,1.38-5.58,1.3-1.87-.08-3.59-.64-5.15-1.68s-2.83-2.51-3.79-4.39-1.41-3.76-1.36-5.65Z"/>
        <path class="cls-1" d="M539.69,75.2c-1.87-.42-3.51-1.29-4.93-2.62s-2.42-2.99-3.02-5c-.59-2-.65-3.94-.18-5.82.47-1.87,1.38-3.5,2.72-4.87,1.34-1.37,2.97-2.34,4.9-2.91,1.93-.57,3.83-.64,5.7-.22,1.87.42,3.5,1.29,4.9,2.61,1.4,1.32,2.39,2.99,2.98,4.99.59,2,.66,3.95.2,5.83-.46,1.88-1.35,3.51-2.68,4.87-1.33,1.37-2.96,2.34-4.89,2.91-1.93.57-3.83.64-5.69.22ZM547.48,67.62c.66-1.38.73-2.96.2-4.76-.53-1.81-1.45-3.11-2.76-3.9-1.3-.79-2.77-.94-4.41-.46-1.65.49-2.81,1.41-3.48,2.77-.67,1.36-.73,2.96-.19,4.78.53,1.81,1.45,3.11,2.76,3.9,1.3.79,2.78.94,4.43.45,1.63-.48,2.78-1.41,3.44-2.8Z"/>
        <path class="cls-1" d="M576.79,69.45l-5.18.53-10.01-12.22,1.35,13.11-5.18.53-2.19-21.25,5.18-.53,10.02,12.28-1.36-13.17,5.18-.53,2.19,21.25Z"/>
        <path class="cls-1" d="M599.7,49.47l-1.55,21.31-5.19-.38.64-8.77-8.07-.59-.64,8.77-5.19-.38,1.55-21.31,5.19.38-.61,8.35,8.07.59.61-8.35,5.19.38Z"/>
        <path class="cls-1" d="M610,55.84l-.96,4.21,6.79,1.55-.9,3.92-6.79-1.55-1.04,4.57,7.68,1.76-.93,4.06-12.76-2.92,4.77-20.83,12.76,2.92-.93,4.06-7.68-1.76Z"/>
        <path class="cls-1" d="M622.91,59.9c1.46-1.19,3.12-1.92,4.98-2.16,1.86-.25,3.75.01,5.67.78,2.35.94,4.12,2.37,5.3,4.29,1.18,1.92,1.62,4.06,1.32,6.43l-5.31-2.13c-.06-.99-.37-1.84-.92-2.57-.55-.72-1.29-1.27-2.21-1.64-1.49-.6-2.9-.56-4.24.1s-2.35,1.86-3.05,3.6c-.7,1.73-.79,3.3-.28,4.71.51,1.41,1.5,2.41,2.99,3.01.92.37,1.83.48,2.73.34.9-.14,1.71-.55,2.44-1.22l5.31,2.13c-1.43,1.92-3.23,3.16-5.4,3.72-2.17.56-4.43.37-6.79-.58-1.92-.77-3.47-1.89-4.64-3.35-1.17-1.47-1.88-3.13-2.11-5-.23-1.87.04-3.78.83-5.74.79-1.96,1.91-3.53,3.37-4.73Z"/>
        <path class="cls-1" d="M652,67.78l-10.41,18.66-4.54-2.54,10.41-18.66,4.54,2.54Z"/>
        <path class="cls-1" d="M667.48,79.82c.83,1.71,1.15,3.49.94,5.34-.21,1.85-.93,3.62-2.18,5.33-1.23,1.69-2.7,2.91-4.4,3.68-1.7.77-3.5,1.01-5.4.73-1.9-.28-3.74-1.08-5.55-2.39l-6.46-4.72,12.6-17.25,6.46,4.72c1.82,1.33,3.14,2.85,3.98,4.56ZM657.94,90.08c1.52-.22,2.86-1.13,4.02-2.72,1.16-1.59,1.62-3.15,1.38-4.68-.24-1.53-1.15-2.88-2.74-4.04l-1.99-1.45-7.32,10.03,1.99,1.45c1.59,1.16,3.14,1.63,4.66,1.41Z"/>
        <path class="cls-1" d="M665.5,102.97c-.48-1.86-.45-3.72.09-5.58.54-1.87,1.56-3.52,3.08-4.96,1.52-1.44,3.22-2.37,5.1-2.81,1.88-.43,3.74-.36,5.57.21,1.83.57,3.44,1.58,4.82,3.04,1.38,1.46,2.31,3.11,2.79,4.97.48,1.86.44,3.71-.1,5.55-.54,1.84-1.57,3.49-3.09,4.93-1.52,1.44-3.22,2.38-5.1,2.83-1.89.45-3.74.39-5.56-.18-1.82-.56-3.43-1.57-4.81-3.03-1.38-1.46-2.31-3.11-2.79-4.97ZM675.78,106.47c1.53-.04,2.97-.7,4.32-1.99,1.37-1.3,2.11-2.71,2.22-4.23.11-1.52-.42-2.9-1.59-4.13-1.19-1.25-2.54-1.86-4.06-1.84s-2.96.7-4.35,2.01c-1.37,1.3-2.11,2.71-2.22,4.23-.11,1.52.43,2.9,1.62,4.15,1.17,1.24,2.53,1.83,4.06,1.79Z"/>
      </g>
    </g>
  </g>
</svg>